<?xml version="1.0" encoding="UTF-8" standalone="no"?>
<svg width="1200px" height="675px" viewBox="0 0 1200 675" version="1.1" xmlns="http://www.w3.org/2000/svg" xmlns:xlink="http://www.w3.org/1999/xlink" xmlns:sketch="http://www.bohemiancoding.com/sketch/ns">
    <title>09</title>
    <description>Created with Sketch (http://www.bohemiancoding.com/sketch)</description>
    <defs></defs>
    <g id="Page-1" stroke="none" stroke-width="1" fill="none" fill-rule="evenodd" sketch:type="MSPage">
        <g id="Recursive" sketch:type="MSLayerGroup" transform="translate(30.000000, 38.000000)">
            <g id="E1" transform="translate(26.000000, 124.000000)">
                <text id="(factorial-6)" fill="#000000" sketch:type="MSTextLayer" font-family="Helvetica" font-size="12" font-weight="normal">
                    <tspan x="11" y="99">(factorial 6)</tspan>
                </text>
                <text id="n:-6" sketch:type="MSTextLayer" font-family="Helvetica" font-size="12" font-weight="normal" fill="#000000">
                    <tspan x="61" y="62">n: 6</tspan>
                </text>
                <rect id="Rectangle-1" stroke="#979797" sketch:type="MSShapeGroup" x="48" y="44" width="50" height="30"></rect>
                <text sketch:type="MSTextLayer" font-family="Helvetica" font-size="12" font-weight="normal" fill="#000000">
                    <tspan x="0" y="62">E1</tspan>
                </text>
                <path d="M22.5,57.5 L41.5,57.5" id="Line" stroke="#979797" stroke-linecap="square" sketch:type="MSShapeGroup"></path>
                <path id="Line-decoration-1" d="M41.5,57.5 C37.72,56.45 34.48,55.55 30.7,54.5 C30.7,56.6 30.7,58.4 30.7,60.5 C34.48,59.45 37.72,58.55 41.5,57.5 C41.5,57.5 41.5,57.5 41.5,57.5 Z" stroke="#979797" stroke-linecap="square"></path>
                <path d="M71.5,44.5 L71.5,0.5" id="Line" stroke="#979797" stroke-linecap="square" sketch:type="MSShapeGroup"></path>
                <path id="Line-decoration-1" d="M71.5,0.5 C70.45,4.28000005 69.55,7.52000009 68.5,11.3000001 C70.6,11.3 72.4,11.3 74.5,11.2999999 C73.45,7.51999991 72.55,4.27999995 71.5,0.5 C71.5,0.5 71.5,0.5 71.5,0.5 Z" stroke="#979797" stroke-linecap="square"></path>
            </g>
            <rect id="Rectangle-2" stroke="#979797" sketch:type="MSShapeGroup" x="0" y="53" width="880" height="71"></rect>
            <g id="E2" transform="translate(157.000000, 124.000000)">
                <text id="(factorial-5)" fill="#000000" sketch:type="MSTextLayer" font-family="Helvetica" font-size="12" font-weight="normal">
                    <tspan x="11" y="99">(factorial 5)</tspan>
                </text>
                <text id="n:-5" sketch:type="MSTextLayer" font-family="Helvetica" font-size="12" font-weight="normal" fill="#000000">
                    <tspan x="61" y="62">n: 5</tspan>
                </text>
                <rect id="Rectangle-1" stroke="#979797" sketch:type="MSShapeGroup" x="48" y="44" width="50" height="30"></rect>
                <text sketch:type="MSTextLayer" font-family="Helvetica" font-size="12" font-weight="normal" fill="#000000">
                    <tspan x="0" y="62">E2</tspan>
                </text>
                <path d="M22.5,57.5 L41.5,57.5" id="Line" stroke="#979797" stroke-linecap="square" sketch:type="MSShapeGroup"></path>
                <path id="Line-decoration-1" d="M41.5,57.5 C37.72,56.45 34.48,55.55 30.7,54.5 C30.7,56.6 30.7,58.4 30.7,60.5 C34.48,59.45 37.72,58.55 41.5,57.5 C41.5,57.5 41.5,57.5 41.5,57.5 Z" stroke="#979797" stroke-linecap="square"></path>
                <path d="M71.5,44.5 L71.5,0.5" id="Line" stroke="#979797" stroke-linecap="square" sketch:type="MSShapeGroup"></path>
                <path id="Line-decoration-1" d="M71.5,0.5 C70.45,4.28000005 69.55,7.52000009 68.5,11.3000001 C70.6,11.3 72.4,11.3 74.5,11.2999999 C73.45,7.51999991 72.55,4.27999995 71.5,0.5 C71.5,0.5 71.5,0.5 71.5,0.5 Z" stroke="#979797" stroke-linecap="square"></path>
            </g>
            <g id="E3" transform="translate(288.000000, 124.000000)">
                <text id="(factorial-4)" fill="#000000" sketch:type="MSTextLayer" font-family="Helvetica" font-size="12" font-weight="normal">
                    <tspan x="11" y="99">(factorial 4)</tspan>
                </text>
                <text id="n:-4" sketch:type="MSTextLayer" font-family="Helvetica" font-size="12" font-weight="normal" fill="#000000">
                    <tspan x="61" y="62">n: 4</tspan>
                </text>
                <rect id="Rectangle-1" stroke="#979797" sketch:type="MSShapeGroup" x="48" y="44" width="50" height="30"></rect>
                <text sketch:type="MSTextLayer" font-family="Helvetica" font-size="12" font-weight="normal" fill="#000000">
                    <tspan x="0" y="62">E3</tspan>
                </text>
                <path d="M22.5,57.5 L41.5,57.5" id="Line" stroke="#979797" stroke-linecap="square" sketch:type="MSShapeGroup"></path>
                <path id="Line-decoration-1" d="M41.5,57.5 C37.72,56.45 34.48,55.55 30.7,54.5 C30.7,56.6 30.7,58.4 30.7,60.5 C34.48,59.45 37.72,58.55 41.5,57.5 C41.5,57.5 41.5,57.5 41.5,57.5 Z" stroke="#979797" stroke-linecap="square"></path>
                <path d="M71.5,44.5 L71.5,0.5" id="Line" stroke="#979797" stroke-linecap="square" sketch:type="MSShapeGroup"></path>
                <path id="Line-decoration-1" d="M71.5,0.5 C70.45,4.28000005 69.55,7.52000009 68.5,11.3000001 C70.6,11.3 72.4,11.3 74.5,11.2999999 C73.45,7.51999991 72.55,4.27999995 71.5,0.5 C71.5,0.5 71.5,0.5 71.5,0.5 Z" stroke="#979797" stroke-linecap="square"></path>
            </g>
            <g id="E4" transform="translate(419.000000, 124.000000)">
                <text id="(factorial-3)" fill="#000000" sketch:type="MSTextLayer" font-family="Helvetica" font-size="12" font-weight="normal">
                    <tspan x="11" y="99">(factorial 3)</tspan>
                </text>
                <text id="n:-3" sketch:type="MSTextLayer" font-family="Helvetica" font-size="12" font-weight="normal" fill="#000000">
                    <tspan x="61" y="62">n: 3</tspan>
                </text>
                <rect id="Rectangle-1" stroke="#979797" sketch:type="MSShapeGroup" x="48" y="44" width="50" height="30"></rect>
                <text sketch:type="MSTextLayer" font-family="Helvetica" font-size="12" font-weight="normal" fill="#000000">
                    <tspan x="0" y="62">E4</tspan>
                </text>
                <path d="M22.5,57.5 L41.5,57.5" id="Line" stroke="#979797" stroke-linecap="square" sketch:type="MSShapeGroup"></path>
                <path id="Line-decoration-1" d="M41.5,57.5 C37.72,56.45 34.48,55.55 30.7,54.5 C30.7,56.6 30.7,58.4 30.7,60.5 C34.48,59.45 37.72,58.55 41.5,57.5 C41.5,57.5 41.5,57.5 41.5,57.5 Z" stroke="#979797" stroke-linecap="square"></path>
                <path d="M71.5,44.5 L71.5,0.5" id="Line" stroke="#979797" stroke-linecap="square" sketch:type="MSShapeGroup"></path>
                <path id="Line-decoration-1" d="M71.5,0.5 C70.45,4.28000005 69.55,7.52000009 68.5,11.3000001 C70.6,11.3 72.4,11.3 74.5,11.2999999 C73.45,7.51999991 72.55,4.27999995 71.5,0.5 C71.5,0.5 71.5,0.5 71.5,0.5 Z" stroke="#979797" stroke-linecap="square"></path>
            </g>
            <g id="E5" transform="translate(550.000000, 124.000000)">
                <text id="(factorial-2)" fill="#000000" sketch:type="MSTextLayer" font-family="Helvetica" font-size="12" font-weight="normal">
                    <tspan x="11" y="99">(factorial 2)</tspan>
                </text>
                <text id="n:-2" sketch:type="MSTextLayer" font-family="Helvetica" font-size="12" font-weight="normal" fill="#000000">
                    <tspan x="61" y="62">n: 2</tspan>
                </text>
                <rect id="Rectangle-1" stroke="#979797" sketch:type="MSShapeGroup" x="48" y="44" width="50" height="30"></rect>
                <text sketch:type="MSTextLayer" font-family="Helvetica" font-size="12" font-weight="normal" fill="#000000">
                    <tspan x="0" y="62">E5</tspan>
                </text>
                <path d="M22.5,57.5 L41.5,57.5" id="Line" stroke="#979797" stroke-linecap="square" sketch:type="MSShapeGroup"></path>
                <path id="Line-decoration-1" d="M41.5,57.5 C37.72,56.45 34.48,55.55 30.7,54.5 C30.7,56.6 30.7,58.4 30.7,60.5 C34.48,59.45 37.72,58.55 41.5,57.5 C41.5,57.5 41.5,57.5 41.5,57.5 Z" stroke="#979797" stroke-linecap="square"></path>
                <path d="M71.5,44.5 L71.5,0.5" id="Line" stroke="#979797" stroke-linecap="square" sketch:type="MSShapeGroup"></path>
                <path id="Line-decoration-1" d="M71.5,0.5 C70.45,4.28000005 69.55,7.52000009 68.5,11.3000001 C70.6,11.3 72.4,11.3 74.5,11.2999999 C73.45,7.51999991 72.55,4.27999995 71.5,0.5 C71.5,0.5 71.5,0.5 71.5,0.5 Z" stroke="#979797" stroke-linecap="square"></path>
            </g>
            <g id="E5" transform="translate(681.000000, 124.000000)">
                <text id="(factorial-1)" fill="#000000" sketch:type="MSTextLayer" font-family="Helvetica" font-size="12" font-weight="normal">
                    <tspan x="11" y="99">(factorial 1)</tspan>
                </text>
                <text id="n:-1" sketch:type="MSTextLayer" font-family="Helvetica" font-size="12" font-weight="normal" fill="#000000">
                    <tspan x="61" y="62">n: 1</tspan>
                </text>
                <rect id="Rectangle-1" stroke="#979797" sketch:type="MSShapeGroup" x="48" y="44" width="50" height="30"></rect>
                <text id="E6" sketch:type="MSTextLayer" font-family="Helvetica" font-size="12" font-weight="normal" fill="#000000">
                    <tspan x="0" y="62">E6</tspan>
                </text>
                <path d="M22.5,57.5 L41.5,57.5" id="Line" stroke="#979797" stroke-linecap="square" sketch:type="MSShapeGroup"></path>
                <path id="Line-decoration-1" d="M41.5,57.5 C37.72,56.45 34.48,55.55 30.7,54.5 C30.7,56.6 30.7,58.4 30.7,60.5 C34.48,59.45 37.72,58.55 41.5,57.5 C41.5,57.5 41.5,57.5 41.5,57.5 Z" stroke="#979797" stroke-linecap="square"></path>
                <path d="M71.5,44.5 L71.5,0.5" id="Line" stroke="#979797" stroke-linecap="square" sketch:type="MSShapeGroup"></path>
                <path id="Line-decoration-1" d="M71.5,0.5 C70.45,4.28000005 69.55,7.52000009 68.5,11.3000001 C70.6,11.3 72.4,11.3 74.5,11.2999999 C73.45,7.51999991 72.55,4.27999995 71.5,0.5 C71.5,0.5 71.5,0.5 71.5,0.5 Z" stroke="#979797" stroke-linecap="square"></path>
            </g>
            <text id="global-env:" sketch:type="MSTextLayer" font-family="Helvetica" font-size="12" font-weight="normal" fill="#000000">
                <tspan x="0" y="45">global env:</tspan>
            </text>
            <text id="Environments-created" sketch:type="MSTextLayer" font-family="Helvetica" font-size="18" font-weight="bold" fill="#000000">
                <tspan x="0" y="18">Environments created by evaluating a recursive implementation of (factorial 6)</tspan>
            </text>
        </g>
        <g id="Iterative" sketch:type="MSLayerGroup" transform="translate(30.000000, 380.000000)">
            <g id="E1" transform="translate(26.000000, 124.000000)">
                <text id="(factorial-6)" fill="#000000" sketch:type="MSTextLayer" font-family="Helvetica" font-size="12" font-weight="normal">
                    <tspan x="11" y="99">(factorial 6)</tspan>
                </text>
                <text id="n:-6" sketch:type="MSTextLayer" font-family="Helvetica" font-size="12" font-weight="normal" fill="#000000">
                    <tspan x="61" y="62">n: 6</tspan>
                </text>
                <rect id="Rectangle-1" stroke="#979797" sketch:type="MSShapeGroup" x="48" y="44" width="50" height="30"></rect>
                <text sketch:type="MSTextLayer" font-family="Helvetica" font-size="12" font-weight="normal" fill="#000000">
                    <tspan x="0" y="62">E1</tspan>
                </text>
                <path d="M22.5,57.5 L41.5,57.5" id="Line" stroke="#979797" stroke-linecap="square" sketch:type="MSShapeGroup"></path>
                <path id="Line-decoration-1" d="M41.5,57.5 C37.72,56.45 34.48,55.55 30.7,54.5 C30.7,56.6 30.7,58.4 30.7,60.5 C34.48,59.45 37.72,58.55 41.5,57.5 C41.5,57.5 41.5,57.5 41.5,57.5 Z" stroke="#979797" stroke-linecap="square"></path>
                <path d="M71.5,44.5 L71.5,0.5" id="Line" stroke="#979797" stroke-linecap="square" sketch:type="MSShapeGroup"></path>
                <path id="Line-decoration-1" d="M71.5,0.5 C70.45,4.28000005 69.55,7.52000009 68.5,11.3000001 C70.6,11.3 72.4,11.3 74.5,11.2999999 C73.45,7.51999991 72.55,4.27999995 71.5,0.5 C71.5,0.5 71.5,0.5 71.5,0.5 Z" stroke="#979797" stroke-linecap="square"></path>
            </g>
            <rect id="Rectangle-2" stroke="#979797" sketch:type="MSShapeGroup" x="0" y="53" width="1133" height="71"></rect>
            <g id="E2" transform="translate(157.000000, 124.000000)">
                <text id="(fact-iter-1-1-6)" fill="#000000" sketch:type="MSTextLayer" font-family="Helvetica" font-size="12" font-weight="normal">
                    <tspan x="8" y="124">(fact-iter 1 1 6)</tspan>
                </text>
                <text id="product:-1" sketch:type="MSTextLayer" font-family="Helvetica" font-size="12" font-weight="normal" fill="#000000">
                    <tspan x="58" y="62">product: 1</tspan>
                    <tspan x="58" y="76">counter: 1</tspan>
                    <tspan x="58" y="90">n: 6</tspan>
                </text>
                <rect id="Rectangle-1" stroke="#979797" sketch:type="MSShapeGroup" x="48" y="44" width="77" height="57"></rect>
                <text sketch:type="MSTextLayer" font-family="Helvetica" font-size="12" font-weight="normal" fill="#000000">
                    <tspan x="0" y="62">E2</tspan>
                </text>
                <path d="M22.5,57.5 L41.5,57.5" id="Line" stroke="#979797" stroke-linecap="square" sketch:type="MSShapeGroup"></path>
                <path id="Line-decoration-1" d="M41.5,57.5 C37.72,56.45 34.48,55.55 30.7,54.5 C30.7,56.6 30.7,58.4 30.7,60.5 C34.48,59.45 37.72,58.55 41.5,57.5 C41.5,57.5 41.5,57.5 41.5,57.5 Z" stroke="#979797" stroke-linecap="square"></path>
                <path d="M71.5,44.5 L71.5,0.5" id="Line" stroke="#979797" stroke-linecap="square" sketch:type="MSShapeGroup"></path>
                <path id="Line-decoration-1" d="M71.5,0.5 C70.45,4.28000005 69.55,7.52000009 68.5,11.3000001 C70.6,11.3 72.4,11.3 74.5,11.2999999 C73.45,7.51999991 72.55,4.27999995 71.5,0.5 C71.5,0.5 71.5,0.5 71.5,0.5 Z" stroke="#979797" stroke-linecap="square"></path>
            </g>
            <g id="E3" transform="translate(317.000000, 124.000000)">
                <text id="(fact-iter-1-2-6)" fill="#000000" sketch:type="MSTextLayer" font-family="Helvetica" font-size="12" font-weight="normal">
                    <tspan x="8" y="124">(fact-iter 1 2 6)</tspan>
                </text>
                <text id="product:-1" sketch:type="MSTextLayer" font-family="Helvetica" font-size="12" font-weight="normal" fill="#000000">
                    <tspan x="58" y="62">product: 1</tspan>
                    <tspan x="58" y="76">counter: 2</tspan>
                    <tspan x="58" y="90">n: 6</tspan>
                </text>
                <rect id="Rectangle-1" stroke="#979797" sketch:type="MSShapeGroup" x="48" y="44" width="77" height="57"></rect>
                <text sketch:type="MSTextLayer" font-family="Helvetica" font-size="12" font-weight="normal" fill="#000000">
                    <tspan x="0" y="62">E3</tspan>
                </text>
                <path d="M22.5,57.5 L41.5,57.5" id="Line" stroke="#979797" stroke-linecap="square" sketch:type="MSShapeGroup"></path>
                <path id="Line-decoration-1" d="M41.5,57.5 C37.72,56.45 34.48,55.55 30.7,54.5 C30.7,56.6 30.7,58.4 30.7,60.5 C34.48,59.45 37.72,58.55 41.5,57.5 C41.5,57.5 41.5,57.5 41.5,57.5 Z" stroke="#979797" stroke-linecap="square"></path>
                <path d="M71.5,44.5 L71.5,0.5" id="Line" stroke="#979797" stroke-linecap="square" sketch:type="MSShapeGroup"></path>
                <path id="Line-decoration-1" d="M71.5,0.5 C70.45,4.28000005 69.55,7.52000009 68.5,11.3000001 C70.6,11.3 72.4,11.3 74.5,11.2999999 C73.45,7.51999991 72.55,4.27999995 71.5,0.5 C71.5,0.5 71.5,0.5 71.5,0.5 Z" stroke="#979797" stroke-linecap="square"></path>
            </g>
            <g id="E4" transform="translate(477.000000, 124.000000)">
                <text id="(fact-iter-2-3-6)" fill="#000000" sketch:type="MSTextLayer" font-family="Helvetica" font-size="12" font-weight="normal">
                    <tspan x="8" y="124">(fact-iter 2 3 6)</tspan>
                </text>
                <text id="product:-2" sketch:type="MSTextLayer" font-family="Helvetica" font-size="12" font-weight="normal" fill="#000000">
                    <tspan x="58" y="62">product: 2</tspan>
                    <tspan x="58" y="76">counter: 3</tspan>
                    <tspan x="58" y="90">n: 6</tspan>
                </text>
                <rect id="Rectangle-1" stroke="#979797" sketch:type="MSShapeGroup" x="48" y="44" width="77" height="57"></rect>
                <text sketch:type="MSTextLayer" font-family="Helvetica" font-size="12" font-weight="normal" fill="#000000">
                    <tspan x="0" y="62">E4</tspan>
                </text>
                <path d="M22.5,57.5 L41.5,57.5" id="Line" stroke="#979797" stroke-linecap="square" sketch:type="MSShapeGroup"></path>
                <path id="Line-decoration-1" d="M41.5,57.5 C37.72,56.45 34.48,55.55 30.7,54.5 C30.7,56.6 30.7,58.4 30.7,60.5 C34.48,59.45 37.72,58.55 41.5,57.5 C41.5,57.5 41.5,57.5 41.5,57.5 Z" stroke="#979797" stroke-linecap="square"></path>
                <path d="M71.5,44.5 L71.5,0.5" id="Line" stroke="#979797" stroke-linecap="square" sketch:type="MSShapeGroup"></path>
                <path id="Line-decoration-1" d="M71.5,0.5 C70.45,4.28000005 69.55,7.52000009 68.5,11.3000001 C70.6,11.3 72.4,11.3 74.5,11.2999999 C73.45,7.51999991 72.55,4.27999995 71.5,0.5 C71.5,0.5 71.5,0.5 71.5,0.5 Z" stroke="#979797" stroke-linecap="square"></path>
            </g>
            <g id="E5" transform="translate(637.000000, 124.000000)">
                <text id="(fact-iter-6-4-6)" fill="#000000" sketch:type="MSTextLayer" font-family="Helvetica" font-size="12" font-weight="normal">
                    <tspan x="8" y="124">(fact-iter 6 4 6)</tspan>
                </text>
                <text id="product:-6" sketch:type="MSTextLayer" font-family="Helvetica" font-size="12" font-weight="normal" fill="#000000">
                    <tspan x="58" y="62">product: 6</tspan>
                    <tspan x="58" y="76">counter: 4</tspan>
                    <tspan x="58" y="90">n: 6</tspan>
                </text>
                <rect id="Rectangle-1" stroke="#979797" sketch:type="MSShapeGroup" x="48" y="44" width="77" height="57"></rect>
                <text sketch:type="MSTextLayer" font-family="Helvetica" font-size="12" font-weight="normal" fill="#000000">
                    <tspan x="0" y="62">E5</tspan>
                </text>
                <path d="M22.5,57.5 L41.5,57.5" id="Line" stroke="#979797" stroke-linecap="square" sketch:type="MSShapeGroup"></path>
                <path id="Line-decoration-1" d="M41.5,57.5 C37.72,56.45 34.48,55.55 30.7,54.5 C30.7,56.6 30.7,58.4 30.7,60.5 C34.48,59.45 37.72,58.55 41.5,57.5 C41.5,57.5 41.5,57.5 41.5,57.5 Z" stroke="#979797" stroke-linecap="square"></path>
                <path d="M71.5,44.5 L71.5,0.5" id="Line" stroke="#979797" stroke-linecap="square" sketch:type="MSShapeGroup"></path>
                <path id="Line-decoration-1" d="M71.5,0.5 C70.45,4.28000005 69.55,7.52000009 68.5,11.3000001 C70.6,11.3 72.4,11.3 74.5,11.2999999 C73.45,7.51999991 72.55,4.27999995 71.5,0.5 C71.5,0.5 71.5,0.5 71.5,0.5 Z" stroke="#979797" stroke-linecap="square"></path>
            </g>
            <g id="E6" transform="translate(797.000000, 125.000000)">
                <text id="(fact-iter-24-5-6)" fill="#000000" sketch:type="MSTextLayer" font-family="Helvetica" font-size="12" font-weight="normal">
                    <tspan x="8" y="124">(fact-iter 24 5 6)</tspan>
                </text>
                <text id="product:-24" sketch:type="MSTextLayer" font-family="Helvetica" font-size="12" font-weight="normal" fill="#000000">
                    <tspan x="58" y="62">product: 24</tspan>
                    <tspan x="58" y="76">counter: 5</tspan>
                    <tspan x="58" y="90">n: 6</tspan>
                </text>
                <rect id="Rectangle-1" stroke="#979797" sketch:type="MSShapeGroup" x="48" y="44" width="77" height="57"></rect>
                <text sketch:type="MSTextLayer" font-family="Helvetica" font-size="12" font-weight="normal" fill="#000000">
                    <tspan x="0" y="62">E6</tspan>
                </text>
                <path d="M22.5,57.5 L41.5,57.5" id="Line" stroke="#979797" stroke-linecap="square" sketch:type="MSShapeGroup"></path>
                <path id="Line-decoration-1" d="M41.5,57.5 C37.72,56.45 34.48,55.55 30.7,54.5 C30.7,56.6 30.7,58.4 30.7,60.5 C34.48,59.45 37.72,58.55 41.5,57.5 C41.5,57.5 41.5,57.5 41.5,57.5 Z" stroke="#979797" stroke-linecap="square"></path>
                <path d="M71.5,44.5 L71.5,0.5" id="Line" stroke="#979797" stroke-linecap="square" sketch:type="MSShapeGroup"></path>
                <path id="Line-decoration-1" d="M71.5,0.5 C70.45,4.28000005 69.55,7.52000009 68.5,11.3000001 C70.6,11.3 72.4,11.3 74.5,11.2999999 C73.45,7.51999991 72.55,4.27999995 71.5,0.5 C71.5,0.5 71.5,0.5 71.5,0.5 Z" stroke="#979797" stroke-linecap="square"></path>
            </g>
            <g id="E6" transform="translate(957.000000, 124.000000)">
                <text id="(fact-iter-120-6-6)" fill="#000000" sketch:type="MSTextLayer" font-family="Helvetica" font-size="12" font-weight="normal">
                    <tspan x="8" y="124">(fact-iter 120 6 6)</tspan>
                </text>
                <text id="product:-120" sketch:type="MSTextLayer" font-family="Helvetica" font-size="12" font-weight="normal" fill="#000000">
                    <tspan x="58" y="62">product: 120</tspan>
                    <tspan x="58" y="76">counter: 6</tspan>
                    <tspan x="58" y="90">n: 6</tspan>
                </text>
                <rect id="Rectangle-1" stroke="#979797" sketch:type="MSShapeGroup" x="48" y="44" width="86" height="57"></rect>
                <text id="E7" sketch:type="MSTextLayer" font-family="Helvetica" font-size="12" font-weight="normal" fill="#000000">
                    <tspan x="0" y="62">E7</tspan>
                </text>
                <path d="M22.5,57.5 L41.5,57.5" id="Line" stroke="#979797" stroke-linecap="square" sketch:type="MSShapeGroup"></path>
                <path id="Line-decoration-1" d="M41.5,57.5 C37.72,56.45 34.48,55.55 30.7,54.5 C30.7,56.6 30.7,58.4 30.7,60.5 C34.48,59.45 37.72,58.55 41.5,57.5 C41.5,57.5 41.5,57.5 41.5,57.5 Z" stroke="#979797" stroke-linecap="square"></path>
                <path d="M71.5,44.5 L71.5,0.5" id="Line" stroke="#979797" stroke-linecap="square" sketch:type="MSShapeGroup"></path>
                <path id="Line-decoration-1" d="M71.5,0.5 C70.45,4.28000005 69.55,7.52000009 68.5,11.3000001 C70.6,11.3 72.4,11.3 74.5,11.2999999 C73.45,7.51999991 72.55,4.27999995 71.5,0.5 C71.5,0.5 71.5,0.5 71.5,0.5 Z" stroke="#979797" stroke-linecap="square"></path>
            </g>
            <text id="global-env:" sketch:type="MSTextLayer" font-family="Helvetica" font-size="12" font-weight="normal" fill="#000000">
                <tspan x="0" y="45">global env:</tspan>
            </text>
            <text id="Environments-created" sketch:type="MSTextLayer" font-family="Helvetica" font-size="18" font-weight="bold" fill="#000000">
                <tspan x="0" y="18">Environments created by evaluating an iterative implementation of (factorial 6)</tspan>
            </text>
        </g>
    </g>
</svg>