<?xml version="1.0" encoding="UTF-8" standalone="no"?>
<svg width="440px" height="1179px" viewBox="0 0 440 1179" version="1.1" xmlns="http://www.w3.org/2000/svg" xmlns:xlink="http://www.w3.org/1999/xlink" xmlns:sketch="http://www.bohemiancoding.com/sketch/ns">
    <title>12</title>
    <description>Created with Sketch (http://www.bohemiancoding.com/sketch)</description>
    <defs></defs>
    <g id="Page-1" stroke="none" stroke-width="1" fill="none" fill-rule="evenodd" sketch:type="MSPage">
        <g id="initial" sketch:type="MSLayerGroup" transform="translate(16.000000, 19.000000)">
            <g id="list-x" transform="translate(1.000000, 49.000000)">
                <g id="a-cons" transform="translate(41.000000, 0.000000)">
                    <rect id="Rectangle-1" stroke="#979797" sketch:type="MSShapeGroup" x="0" y="0" width="30" height="30"></rect>
                    <rect id="Rectangle-1" stroke="#979797" sketch:type="MSShapeGroup" x="29" y="0" width="30" height="30"></rect>
                    <path d="M15,22 C18.8659934,22 22,18.8659934 22,15 C22,11.1340066 18.8659934,8 15,8 C11.1340066,8 8,11.1340066 8,15 C8,18.8659934 11.1340066,22 15,22 Z M44,22 C47.8659934,22 51,18.8659934 51,15 C51,11.1340066 47.8659934,8 44,8 C40.1340066,8 37,11.1340066 37,15 C37,18.8659934 40.1340066,22 44,22 Z" id="Oval-1" stroke="#979797" fill="#9B9B9B" sketch:type="MSShapeGroup"></path>
                    <path d="M49.5,15.5 L96.5,15.5" id="Line" stroke="#979797" stroke-linecap="square" sketch:type="MSShapeGroup"></path>
                    <path id="Line-decoration-1" d="M96.5,15.5 C92.72,14.45 89.48,13.55 85.7,12.5 C85.7,14.6 85.7,16.4 85.7,18.5 C89.48,17.45 92.72,16.55 96.5,15.5 C96.5,15.5 96.5,15.5 96.5,15.5 Z" stroke="#979797" stroke-linecap="square"></path>
                    <rect id="Rectangle-1" stroke="#979797" sketch:type="MSShapeGroup" x="0" y="53" width="30" height="30"></rect>
                    <path d="M14.5,14.5 L14.5,52.5" id="Line" stroke="#979797" stroke-linecap="square" sketch:type="MSShapeGroup"></path>
                    <path id="Line-decoration-1" d="M14.5,52.5 C15.55,48.72 16.45,45.4800001 17.5,41.7000001 C15.4,41.7 13.6,41.7 11.5,41.6999999 C12.55,45.4799999 13.45,48.72 14.5,52.5 C14.5,52.5 14.5,52.5 14.5,52.5 Z" stroke="#979797" stroke-linecap="square"></path>
                    <text id="a" sketch:type="MSTextLayer" font-family="Helvetica" font-size="12" font-weight="normal" fill="#000000">
                        <tspan x="11" y="72">a</tspan>
                    </text>
                </g>
                <g id="b-cons" transform="translate(140.000000, 0.000000)">
                    <path d="M58.5,0.5 L29.5,29.5" id="Line" stroke="#979797" stroke-linecap="square" sketch:type="MSShapeGroup"></path>
                    <rect id="Rectangle-1" stroke="#979797" sketch:type="MSShapeGroup" x="0" y="0" width="30" height="30"></rect>
                    <rect id="Rectangle-1" stroke="#979797" sketch:type="MSShapeGroup" x="29" y="0" width="30" height="30"></rect>
                    <path d="M15,22 C18.8659934,22 22,18.8659934 22,15 C22,11.1340066 18.8659934,8 15,8 C11.1340066,8 8,11.1340066 8,15 C8,18.8659934 11.1340066,22 15,22 Z" id="Oval-1" stroke="#979797" fill="#9B9B9B" sketch:type="MSShapeGroup"></path>
                    <rect id="Rectangle-1" stroke="#979797" sketch:type="MSShapeGroup" x="0" y="53" width="30" height="30"></rect>
                    <path d="M14.5,14.5 L14.5,52.5" id="Line" stroke="#979797" stroke-linecap="square" sketch:type="MSShapeGroup"></path>
                    <path id="Line-decoration-1" d="M14.5,52.5 C15.55,48.72 16.45,45.4800001 17.5,41.7000001 C15.4,41.7 13.6,41.7 11.5,41.6999999 C12.55,45.4799999 13.45,48.72 14.5,52.5 C14.5,52.5 14.5,52.5 14.5,52.5 Z" stroke="#979797" stroke-linecap="square"></path>
                    <text id="b" sketch:type="MSTextLayer" font-family="Helvetica" font-size="12" font-weight="normal" fill="#000000">
                        <tspan x="11" y="72">b</tspan>
                    </text>
                </g>
                <path d="M8.5,15.5 L39.5,15.5" id="Line" stroke="#979797" stroke-linecap="square" sketch:type="MSShapeGroup"></path>
                <path id="Line-decoration-1" d="M39.5,15.5 C35.72,14.45 32.48,13.55 28.7,12.5 C28.7,14.6 28.7,16.4 28.7,18.5 C32.48,17.45 35.72,16.55 39.5,15.5 C39.5,15.5 39.5,15.5 39.5,15.5 Z" stroke="#979797" stroke-linecap="square"></path>
                <text id="x" sketch:type="MSTextLayer" font-family="Helvetica" font-size="12" font-weight="normal" fill="#000000">
                    <tspan x="0" y="19">x</tspan>
                </text>
            </g>
            <g id="list-y" transform="translate(1.000000, 166.000000)">
                <g id="a-cons" transform="translate(41.000000, 0.000000)">
                    <rect id="Rectangle-1" stroke="#979797" sketch:type="MSShapeGroup" x="0" y="0" width="30" height="30"></rect>
                    <rect id="Rectangle-1" stroke="#979797" sketch:type="MSShapeGroup" x="29" y="0" width="30" height="30"></rect>
                    <path d="M15,22 C18.8659934,22 22,18.8659934 22,15 C22,11.1340066 18.8659934,8 15,8 C11.1340066,8 8,11.1340066 8,15 C8,18.8659934 11.1340066,22 15,22 Z M44,22 C47.8659934,22 51,18.8659934 51,15 C51,11.1340066 47.8659934,8 44,8 C40.1340066,8 37,11.1340066 37,15 C37,18.8659934 40.1340066,22 44,22 Z" id="Oval-1" stroke="#979797" fill="#9B9B9B" sketch:type="MSShapeGroup"></path>
                    <path d="M49.5,15.5 L96.5,15.5" id="Line" stroke="#979797" stroke-linecap="square" sketch:type="MSShapeGroup"></path>
                    <path id="Line-decoration-1" d="M96.5,15.5 C92.72,14.45 89.48,13.55 85.7,12.5 C85.7,14.6 85.7,16.4 85.7,18.5 C89.48,17.45 92.72,16.55 96.5,15.5 C96.5,15.5 96.5,15.5 96.5,15.5 Z" stroke="#979797" stroke-linecap="square"></path>
                    <rect id="Rectangle-1" stroke="#979797" sketch:type="MSShapeGroup" x="0" y="53" width="30" height="30"></rect>
                    <path d="M14.5,14.5 L14.5,52.5" id="Line" stroke="#979797" stroke-linecap="square" sketch:type="MSShapeGroup"></path>
                    <path id="Line-decoration-1" d="M14.5,52.5 C15.55,48.72 16.45,45.4800001 17.5,41.7000001 C15.4,41.7 13.6,41.7 11.5,41.6999999 C12.55,45.4799999 13.45,48.72 14.5,52.5 C14.5,52.5 14.5,52.5 14.5,52.5 Z" stroke="#979797" stroke-linecap="square"></path>
                    <text id="c" sketch:type="MSTextLayer" font-family="Helvetica" font-size="12" font-weight="normal" fill="#000000">
                        <tspan x="11" y="72">c</tspan>
                    </text>
                </g>
                <g id="b-cons" transform="translate(140.000000, 0.000000)">
                    <path d="M58.5,0.5 L29.5,29.5" id="Line" stroke="#979797" stroke-linecap="square" sketch:type="MSShapeGroup"></path>
                    <rect id="Rectangle-1" stroke="#979797" sketch:type="MSShapeGroup" x="0" y="0" width="30" height="30"></rect>
                    <rect id="Rectangle-1" stroke="#979797" sketch:type="MSShapeGroup" x="29" y="0" width="30" height="30"></rect>
                    <path d="M15,22 C18.8659934,22 22,18.8659934 22,15 C22,11.1340066 18.8659934,8 15,8 C11.1340066,8 8,11.1340066 8,15 C8,18.8659934 11.1340066,22 15,22 Z" id="Oval-1" stroke="#979797" fill="#9B9B9B" sketch:type="MSShapeGroup"></path>
                    <rect id="Rectangle-1" stroke="#979797" sketch:type="MSShapeGroup" x="0" y="53" width="30" height="30"></rect>
                    <path d="M14.5,14.5 L14.5,52.5" id="Line" stroke="#979797" stroke-linecap="square" sketch:type="MSShapeGroup"></path>
                    <path id="Line-decoration-1" d="M14.5,52.5 C15.55,48.72 16.45,45.4800001 17.5,41.7000001 C15.4,41.7 13.6,41.7 11.5,41.6999999 C12.55,45.4799999 13.45,48.72 14.5,52.5 C14.5,52.5 14.5,52.5 14.5,52.5 Z" stroke="#979797" stroke-linecap="square"></path>
                    <text id="d" sketch:type="MSTextLayer" font-family="Helvetica" font-size="12" font-weight="normal" fill="#000000">
                        <tspan x="11" y="72">d</tspan>
                    </text>
                </g>
                <path d="M8.5,15.5 L39.5,15.5" id="Line" stroke="#979797" stroke-linecap="square" sketch:type="MSShapeGroup"></path>
                <path id="Line-decoration-1" d="M39.5,15.5 C35.72,14.45 32.48,13.55 28.7,12.5 C28.7,14.6 28.7,16.4 28.7,18.5 C32.48,17.45 35.72,16.55 39.5,15.5 C39.5,15.5 39.5,15.5 39.5,15.5 Z" stroke="#979797" stroke-linecap="square"></path>
                <text id="y" sketch:type="MSTextLayer" font-family="Helvetica" font-size="12" font-weight="normal" fill="#000000">
                    <tspan x="0" y="19">y</tspan>
                </text>
            </g>
            <text id="Lists-immediately-af" sketch:type="MSTextLayer" font-family="Helvetica" font-size="12" font-weight="bold" fill="#000000">
                <tspan x="0" y="11">Lists immediately after definition (before mutation)</tspan>
            </text>
        </g>
        <g id="q2-(w)" sketch:type="MSLayerGroup" transform="translate(16.000000, 785.000000)">
            <g id="list-y" transform="translate(0.000000, 171.000000)">
                <g id="a-cons" transform="translate(41.000000, 0.000000)">
                    <rect id="Rectangle-1" stroke="#979797" sketch:type="MSShapeGroup" x="0" y="0" width="30" height="30"></rect>
                    <rect id="Rectangle-1" stroke="#979797" sketch:type="MSShapeGroup" x="29" y="0" width="30" height="30"></rect>
                    <path d="M15,22 C18.8659934,22 22,18.8659934 22,15 C22,11.1340066 18.8659934,8 15,8 C11.1340066,8 8,11.1340066 8,15 C8,18.8659934 11.1340066,22 15,22 Z M44,22 C47.8659934,22 51,18.8659934 51,15 C51,11.1340066 47.8659934,8 44,8 C40.1340066,8 37,11.1340066 37,15 C37,18.8659934 40.1340066,22 44,22 Z" id="Oval-1" stroke="#979797" fill="#9B9B9B" sketch:type="MSShapeGroup"></path>
                    <path d="M49.5,15.5 L96.5,15.5" id="Line" stroke="#979797" stroke-linecap="square" sketch:type="MSShapeGroup"></path>
                    <path id="Line-decoration-1" d="M96.5,15.5 C92.72,14.45 89.48,13.55 85.7,12.5 C85.7,14.6 85.7,16.4 85.7,18.5 C89.48,17.45 92.72,16.55 96.5,15.5 C96.5,15.5 96.5,15.5 96.5,15.5 Z" stroke="#979797" stroke-linecap="square"></path>
                    <rect id="Rectangle-1" stroke="#979797" sketch:type="MSShapeGroup" x="0" y="53" width="30" height="30"></rect>
                    <path d="M14.5,14.5 L14.5,52.5" id="Line" stroke="#979797" stroke-linecap="square" sketch:type="MSShapeGroup"></path>
                    <path id="Line-decoration-1" d="M14.5,52.5 C15.55,48.72 16.45,45.4800001 17.5,41.7000001 C15.4,41.7 13.6,41.7 11.5,41.6999999 C12.55,45.4799999 13.45,48.72 14.5,52.5 C14.5,52.5 14.5,52.5 14.5,52.5 Z" stroke="#979797" stroke-linecap="square"></path>
                    <text id="c" sketch:type="MSTextLayer" font-family="Helvetica" font-size="12" font-weight="normal" fill="#000000">
                        <tspan x="11" y="72">c</tspan>
                    </text>
                </g>
                <g id="b-cons" transform="translate(140.000000, 0.000000)">
                    <path d="M58.5,0.5 L29.5,29.5" id="Line" stroke="#979797" stroke-linecap="square" sketch:type="MSShapeGroup"></path>
                    <rect id="Rectangle-1" stroke="#979797" sketch:type="MSShapeGroup" x="0" y="0" width="30" height="30"></rect>
                    <rect id="Rectangle-1" stroke="#979797" sketch:type="MSShapeGroup" x="29" y="0" width="30" height="30"></rect>
                    <path d="M15,22 C18.8659934,22 22,18.8659934 22,15 C22,11.1340066 18.8659934,8 15,8 C11.1340066,8 8,11.1340066 8,15 C8,18.8659934 11.1340066,22 15,22 Z" id="Oval-1" stroke="#979797" fill="#9B9B9B" sketch:type="MSShapeGroup"></path>
                    <rect id="Rectangle-1" stroke="#979797" sketch:type="MSShapeGroup" x="0" y="53" width="30" height="30"></rect>
                    <path d="M14.5,14.5 L14.5,52.5" id="Line" stroke="#979797" stroke-linecap="square" sketch:type="MSShapeGroup"></path>
                    <path id="Line-decoration-1" d="M14.5,52.5 C15.55,48.72 16.45,45.4800001 17.5,41.7000001 C15.4,41.7 13.6,41.7 11.5,41.6999999 C12.55,45.4799999 13.45,48.72 14.5,52.5 C14.5,52.5 14.5,52.5 14.5,52.5 Z" stroke="#979797" stroke-linecap="square"></path>
                    <text id="d" sketch:type="MSTextLayer" font-family="Helvetica" font-size="12" font-weight="normal" fill="#000000">
                        <tspan x="11" y="72">d</tspan>
                    </text>
                </g>
                <path d="M8.5,15.5 L39.5,15.5" id="Line" stroke="#979797" stroke-linecap="square" sketch:type="MSShapeGroup"></path>
                <path id="Line-decoration-1" d="M39.5,15.5 C35.72,14.45 32.48,13.55 28.7,12.5 C28.7,14.6 28.7,16.4 28.7,18.5 C32.48,17.45 35.72,16.55 39.5,15.5 C39.5,15.5 39.5,15.5 39.5,15.5 Z" stroke="#979797" stroke-linecap="square"></path>
                <text id="y" sketch:type="MSTextLayer" font-family="Helvetica" font-size="12" font-weight="normal" fill="#000000">
                    <tspan x="0" y="19">y</tspan>
                </text>
            </g>
            <g id="list-z" transform="translate(0.000000, 54.000000)">
                <g id="a-cons" transform="translate(41.000000, 0.000000)">
                    <rect id="Rectangle-1" stroke="#979797" sketch:type="MSShapeGroup" x="0" y="0" width="30" height="30"></rect>
                    <rect id="Rectangle-1" stroke="#979797" sketch:type="MSShapeGroup" x="29" y="0" width="30" height="30"></rect>
                    <path d="M15,22 C18.8659934,22 22,18.8659934 22,15 C22,11.1340066 18.8659934,8 15,8 C11.1340066,8 8,11.1340066 8,15 C8,18.8659934 11.1340066,22 15,22 Z M44,22 C47.8659934,22 51,18.8659934 51,15 C51,11.1340066 47.8659934,8 44,8 C40.1340066,8 37,11.1340066 37,15 C37,18.8659934 40.1340066,22 44,22 Z" id="Oval-1" stroke="#979797" fill="#9B9B9B" sketch:type="MSShapeGroup"></path>
                    <path d="M49.5,15.5 L96.5,15.5" id="Line" stroke="#979797" stroke-linecap="square" sketch:type="MSShapeGroup"></path>
                    <path id="Line-decoration-1" d="M96.5,15.5 C92.72,14.45 89.48,13.55 85.7,12.5 C85.7,14.6 85.7,16.4 85.7,18.5 C89.48,17.45 92.72,16.55 96.5,15.5 C96.5,15.5 96.5,15.5 96.5,15.5 Z" stroke="#979797" stroke-linecap="square"></path>
                    <path d="M144.5,15.5 L191.5,15.5" id="Line" stroke="#979797" stroke-linecap="square" sketch:type="MSShapeGroup"></path>
                    <path id="Line-decoration-1" d="M191.5,15.5 C187.72,14.45 184.48,13.55 180.7,12.5 C180.7,14.6 180.7,16.4 180.7,18.5 C184.48,17.45 187.72,16.55 191.5,15.5 C191.5,15.5 191.5,15.5 191.5,15.5 Z" stroke="#979797" stroke-linecap="square"></path>
                    <rect id="Rectangle-1" stroke="#979797" sketch:type="MSShapeGroup" x="0" y="53" width="30" height="30"></rect>
                    <path d="M14.5,14.5 L14.5,52.5" id="Line" stroke="#979797" stroke-linecap="square" sketch:type="MSShapeGroup"></path>
                    <path id="Line-decoration-1" d="M14.5,52.5 C15.55,48.72 16.45,45.4800001 17.5,41.7000001 C15.4,41.7 13.6,41.7 11.5,41.6999999 C12.55,45.4799999 13.45,48.72 14.5,52.5 C14.5,52.5 14.5,52.5 14.5,52.5 Z" stroke="#979797" stroke-linecap="square"></path>
                    <text id="a" sketch:type="MSTextLayer" font-family="Helvetica" font-size="12" font-weight="normal" fill="#000000">
                        <tspan x="11" y="72">a</tspan>
                    </text>
                </g>
                <g id="b-cons" transform="translate(140.000000, 0.000000)">
                    <rect id="Rectangle-1" stroke="#979797" sketch:type="MSShapeGroup" x="0" y="0" width="30" height="30"></rect>
                    <rect id="Rectangle-1" stroke="#979797" sketch:type="MSShapeGroup" x="29" y="0" width="30" height="30"></rect>
                    <path d="M15,22 C18.8659934,22 22,18.8659934 22,15 C22,11.1340066 18.8659934,8 15,8 C11.1340066,8 8,11.1340066 8,15 C8,18.8659934 11.1340066,22 15,22 Z" id="Oval-1" stroke="#979797" fill="#9B9B9B" sketch:type="MSShapeGroup"></path>
                    <path d="M43,22 C46.8659934,22 50,18.8659934 50,15 C50,11.1340066 46.8659934,8 43,8 C39.1340066,8 36,11.1340066 36,15 C36,18.8659934 39.1340066,22 43,22 Z" id="Oval-1" stroke="#979797" fill="#9B9B9B" sketch:type="MSShapeGroup"></path>
                    <rect id="Rectangle-1" stroke="#979797" sketch:type="MSShapeGroup" x="0" y="53" width="30" height="30"></rect>
                    <path d="M14.5,14.5 L14.5,52.5" id="Line" stroke="#979797" stroke-linecap="square" sketch:type="MSShapeGroup"></path>
                    <path id="Line-decoration-1" d="M14.5,52.5 C15.55,48.72 16.45,45.4800001 17.5,41.7000001 C15.4,41.7 13.6,41.7 11.5,41.6999999 C12.55,45.4799999 13.45,48.72 14.5,52.5 C14.5,52.5 14.5,52.5 14.5,52.5 Z" stroke="#979797" stroke-linecap="square"></path>
                    <text id="b" sketch:type="MSTextLayer" font-family="Helvetica" font-size="12" font-weight="normal" fill="#000000">
                        <tspan x="11" y="72">b</tspan>
                    </text>
                </g>
                <path d="M8.5,15.5 L39.5,15.5" id="Line" stroke="#979797" stroke-linecap="square" sketch:type="MSShapeGroup"></path>
                <path id="Line-decoration-1" d="M39.5,15.5 C35.72,14.45 32.48,13.55 28.7,12.5 C28.7,14.6 28.7,16.4 28.7,18.5 C32.48,17.45 35.72,16.55 39.5,15.5 C39.5,15.5 39.5,15.5 39.5,15.5 Z" stroke="#979797" stroke-linecap="square"></path>
                <text id="x" sketch:type="MSTextLayer" font-family="Helvetica" font-size="12" font-weight="normal" fill="#000000">
                    <tspan x="0" y="19">x</tspan>
                </text>
                <g id="a-cons" transform="translate(234.000000, 0.000000)">
                    <rect id="Rectangle-1" stroke="#979797" sketch:type="MSShapeGroup" x="0" y="0" width="30" height="30"></rect>
                    <rect id="Rectangle-1" stroke="#979797" sketch:type="MSShapeGroup" x="29" y="0" width="30" height="30"></rect>
                    <path d="M15,22 C18.8659934,22 22,18.8659934 22,15 C22,11.1340066 18.8659934,8 15,8 C11.1340066,8 8,11.1340066 8,15 C8,18.8659934 11.1340066,22 15,22 Z M44,22 C47.8659934,22 51,18.8659934 51,15 C51,11.1340066 47.8659934,8 44,8 C40.1340066,8 37,11.1340066 37,15 C37,18.8659934 40.1340066,22 44,22 Z" id="Oval-1" stroke="#979797" fill="#9B9B9B" sketch:type="MSShapeGroup"></path>
                    <path d="M49.5,15.5 L96.5,15.5" id="Line" stroke="#979797" stroke-linecap="square" sketch:type="MSShapeGroup"></path>
                    <path id="Line-decoration-1" d="M96.5,15.5 C92.72,14.45 89.48,13.55 85.7,12.5 C85.7,14.6 85.7,16.4 85.7,18.5 C89.48,17.45 92.72,16.55 96.5,15.5 C96.5,15.5 96.5,15.5 96.5,15.5 Z" stroke="#979797" stroke-linecap="square"></path>
                    <rect id="Rectangle-1" stroke="#979797" sketch:type="MSShapeGroup" x="0" y="53" width="30" height="30"></rect>
                    <path d="M14.5,14.5 L14.5,52.5" id="Line" stroke="#979797" stroke-linecap="square" sketch:type="MSShapeGroup"></path>
                    <path id="Line-decoration-1" d="M14.5,52.5 C15.55,48.72 16.45,45.4800001 17.5,41.7000001 C15.4,41.7 13.6,41.7 11.5,41.6999999 C12.55,45.4799999 13.45,48.72 14.5,52.5 C14.5,52.5 14.5,52.5 14.5,52.5 Z" stroke="#979797" stroke-linecap="square"></path>
                    <text id="c" sketch:type="MSTextLayer" font-family="Helvetica" font-size="12" font-weight="normal" fill="#000000">
                        <tspan x="11" y="72">c</tspan>
                    </text>
                </g>
                <g id="b-cons" transform="translate(332.000000, 0.000000)">
                    <path d="M58.5,0.5 L29.5,29.5" id="Line" stroke="#979797" stroke-linecap="square" sketch:type="MSShapeGroup"></path>
                    <rect id="Rectangle-1" stroke="#979797" sketch:type="MSShapeGroup" x="0" y="0" width="30" height="30"></rect>
                    <rect id="Rectangle-1" stroke="#979797" sketch:type="MSShapeGroup" x="29" y="0" width="30" height="30"></rect>
                    <path d="M15,22 C18.8659934,22 22,18.8659934 22,15 C22,11.1340066 18.8659934,8 15,8 C11.1340066,8 8,11.1340066 8,15 C8,18.8659934 11.1340066,22 15,22 Z" id="Oval-1" stroke="#979797" fill="#9B9B9B" sketch:type="MSShapeGroup"></path>
                    <rect id="Rectangle-1" stroke="#979797" sketch:type="MSShapeGroup" x="0" y="53" width="30" height="30"></rect>
                    <path d="M14.5,14.5 L14.5,52.5" id="Line" stroke="#979797" stroke-linecap="square" sketch:type="MSShapeGroup"></path>
                    <path id="Line-decoration-1" d="M14.5,52.5 C15.55,48.72 16.45,45.4800001 17.5,41.7000001 C15.4,41.7 13.6,41.7 11.5,41.6999999 C12.55,45.4799999 13.45,48.72 14.5,52.5 C14.5,52.5 14.5,52.5 14.5,52.5 Z" stroke="#979797" stroke-linecap="square"></path>
                    <text id="d" sketch:type="MSTextLayer" font-family="Helvetica" font-size="12" font-weight="normal" fill="#000000">
                        <tspan x="11" y="72">d</tspan>
                    </text>
                </g>
            </g>
            <g id="list-z" transform="translate(0.000000, 288.000000)">
                <g id="a-cons" transform="translate(41.000000, 0.000000)">
                    <rect id="Rectangle-1" stroke="#979797" sketch:type="MSShapeGroup" x="0" y="0" width="30" height="30"></rect>
                    <rect id="Rectangle-1" stroke="#979797" sketch:type="MSShapeGroup" x="29" y="0" width="30" height="30"></rect>
                    <path d="M15,22 C18.8659934,22 22,18.8659934 22,15 C22,11.1340066 18.8659934,8 15,8 C11.1340066,8 8,11.1340066 8,15 C8,18.8659934 11.1340066,22 15,22 Z M44,22 C47.8659934,22 51,18.8659934 51,15 C51,11.1340066 47.8659934,8 44,8 C40.1340066,8 37,11.1340066 37,15 C37,18.8659934 40.1340066,22 44,22 Z" id="Oval-1" stroke="#979797" fill="#9B9B9B" sketch:type="MSShapeGroup"></path>
                    <path d="M49.5,15.5 L96.5,15.5" id="Line" stroke="#979797" stroke-linecap="square" sketch:type="MSShapeGroup"></path>
                    <path id="Line-decoration-1" d="M96.5,15.5 C92.72,14.45 89.48,13.55 85.7,12.5 C85.7,14.6 85.7,16.4 85.7,18.5 C89.48,17.45 92.72,16.55 96.5,15.5 C96.5,15.5 96.5,15.5 96.5,15.5 Z" stroke="#979797" stroke-linecap="square"></path>
                    <path d="M144.5,15.5 L191.5,15.5" id="Line" stroke="#979797" stroke-linecap="square" sketch:type="MSShapeGroup"></path>
                    <path id="Line-decoration-1" d="M191.5,15.5 C187.72,14.45 184.48,13.55 180.7,12.5 C180.7,14.6 180.7,16.4 180.7,18.5 C184.48,17.45 187.72,16.55 191.5,15.5 C191.5,15.5 191.5,15.5 191.5,15.5 Z" stroke="#979797" stroke-linecap="square"></path>
                    <rect id="Rectangle-1" stroke="#979797" sketch:type="MSShapeGroup" x="0" y="53" width="30" height="30"></rect>
                    <path d="M14.5,14.5 L14.5,52.5" id="Line" stroke="#979797" stroke-linecap="square" sketch:type="MSShapeGroup"></path>
                    <path id="Line-decoration-1" d="M14.5,52.5 C15.55,48.72 16.45,45.4800001 17.5,41.7000001 C15.4,41.7 13.6,41.7 11.5,41.6999999 C12.55,45.4799999 13.45,48.72 14.5,52.5 C14.5,52.5 14.5,52.5 14.5,52.5 Z" stroke="#979797" stroke-linecap="square"></path>
                    <text id="a" sketch:type="MSTextLayer" font-family="Helvetica" font-size="12" font-weight="normal" fill="#000000">
                        <tspan x="11" y="72">a</tspan>
                    </text>
                </g>
                <g id="b-cons" transform="translate(140.000000, 0.000000)">
                    <rect id="Rectangle-1" stroke="#979797" sketch:type="MSShapeGroup" x="0" y="0" width="30" height="30"></rect>
                    <rect id="Rectangle-1" stroke="#979797" sketch:type="MSShapeGroup" x="29" y="0" width="30" height="30"></rect>
                    <path d="M15,22 C18.8659934,22 22,18.8659934 22,15 C22,11.1340066 18.8659934,8 15,8 C11.1340066,8 8,11.1340066 8,15 C8,18.8659934 11.1340066,22 15,22 Z" id="Oval-1" stroke="#979797" fill="#9B9B9B" sketch:type="MSShapeGroup"></path>
                    <path d="M43,22 C46.8659934,22 50,18.8659934 50,15 C50,11.1340066 46.8659934,8 43,8 C39.1340066,8 36,11.1340066 36,15 C36,18.8659934 39.1340066,22 43,22 Z" id="Oval-1" stroke="#979797" fill="#9B9B9B" sketch:type="MSShapeGroup"></path>
                    <rect id="Rectangle-1" stroke="#979797" sketch:type="MSShapeGroup" x="0" y="53" width="30" height="30"></rect>
                    <path d="M14.5,14.5 L14.5,52.5" id="Line" stroke="#979797" stroke-linecap="square" sketch:type="MSShapeGroup"></path>
                    <path id="Line-decoration-1" d="M14.5,52.5 C15.55,48.72 16.45,45.4800001 17.5,41.7000001 C15.4,41.7 13.6,41.7 11.5,41.6999999 C12.55,45.4799999 13.45,48.72 14.5,52.5 C14.5,52.5 14.5,52.5 14.5,52.5 Z" stroke="#979797" stroke-linecap="square"></path>
                    <text id="b" sketch:type="MSTextLayer" font-family="Helvetica" font-size="12" font-weight="normal" fill="#000000">
                        <tspan x="11" y="72">b</tspan>
                    </text>
                </g>
                <path d="M8.5,15.5 L39.5,15.5" id="Line" stroke="#979797" stroke-linecap="square" sketch:type="MSShapeGroup"></path>
                <path id="Line-decoration-1" d="M39.5,15.5 C35.72,14.45 32.48,13.55 28.7,12.5 C28.7,14.6 28.7,16.4 28.7,18.5 C32.48,17.45 35.72,16.55 39.5,15.5 C39.5,15.5 39.5,15.5 39.5,15.5 Z" stroke="#979797" stroke-linecap="square"></path>
                <text id="w" sketch:type="MSTextLayer" font-family="Helvetica" font-size="12" font-weight="normal" fill="#000000">
                    <tspan x="0" y="19">w</tspan>
                </text>
                <g id="a-cons" transform="translate(234.000000, 0.000000)">
                    <rect id="Rectangle-1" stroke="#979797" sketch:type="MSShapeGroup" x="0" y="0" width="30" height="30"></rect>
                    <rect id="Rectangle-1" stroke="#979797" sketch:type="MSShapeGroup" x="29" y="0" width="30" height="30"></rect>
                    <path d="M15,22 C18.8659934,22 22,18.8659934 22,15 C22,11.1340066 18.8659934,8 15,8 C11.1340066,8 8,11.1340066 8,15 C8,18.8659934 11.1340066,22 15,22 Z M44,22 C47.8659934,22 51,18.8659934 51,15 C51,11.1340066 47.8659934,8 44,8 C40.1340066,8 37,11.1340066 37,15 C37,18.8659934 40.1340066,22 44,22 Z" id="Oval-1" stroke="#979797" fill="#9B9B9B" sketch:type="MSShapeGroup"></path>
                    <path d="M49.5,15.5 L96.5,15.5" id="Line" stroke="#979797" stroke-linecap="square" sketch:type="MSShapeGroup"></path>
                    <path id="Line-decoration-1" d="M96.5,15.5 C92.72,14.45 89.48,13.55 85.7,12.5 C85.7,14.6 85.7,16.4 85.7,18.5 C89.48,17.45 92.72,16.55 96.5,15.5 C96.5,15.5 96.5,15.5 96.5,15.5 Z" stroke="#979797" stroke-linecap="square"></path>
                    <rect id="Rectangle-1" stroke="#979797" sketch:type="MSShapeGroup" x="0" y="53" width="30" height="30"></rect>
                    <path d="M14.5,14.5 L14.5,52.5" id="Line" stroke="#979797" stroke-linecap="square" sketch:type="MSShapeGroup"></path>
                    <path id="Line-decoration-1" d="M14.5,52.5 C15.55,48.72 16.45,45.4800001 17.5,41.7000001 C15.4,41.7 13.6,41.7 11.5,41.6999999 C12.55,45.4799999 13.45,48.72 14.5,52.5 C14.5,52.5 14.5,52.5 14.5,52.5 Z" stroke="#979797" stroke-linecap="square"></path>
                    <text id="c" sketch:type="MSTextLayer" font-family="Helvetica" font-size="12" font-weight="normal" fill="#000000">
                        <tspan x="11" y="72">c</tspan>
                    </text>
                </g>
                <g id="b-cons" transform="translate(332.000000, 0.000000)">
                    <path d="M58.5,0.5 L29.5,29.5" id="Line" stroke="#979797" stroke-linecap="square" sketch:type="MSShapeGroup"></path>
                    <rect id="Rectangle-1" stroke="#979797" sketch:type="MSShapeGroup" x="0" y="0" width="30" height="30"></rect>
                    <rect id="Rectangle-1" stroke="#979797" sketch:type="MSShapeGroup" x="29" y="0" width="30" height="30"></rect>
                    <path d="M15,22 C18.8659934,22 22,18.8659934 22,15 C22,11.1340066 18.8659934,8 15,8 C11.1340066,8 8,11.1340066 8,15 C8,18.8659934 11.1340066,22 15,22 Z" id="Oval-1" stroke="#979797" fill="#9B9B9B" sketch:type="MSShapeGroup"></path>
                    <rect id="Rectangle-1" stroke="#979797" sketch:type="MSShapeGroup" x="0" y="53" width="30" height="30"></rect>
                    <path d="M14.5,14.5 L14.5,52.5" id="Line" stroke="#979797" stroke-linecap="square" sketch:type="MSShapeGroup"></path>
                    <path id="Line-decoration-1" d="M14.5,52.5 C15.55,48.72 16.45,45.4800001 17.5,41.7000001 C15.4,41.7 13.6,41.7 11.5,41.6999999 C12.55,45.4799999 13.45,48.72 14.5,52.5 C14.5,52.5 14.5,52.5 14.5,52.5 Z" stroke="#979797" stroke-linecap="square"></path>
                    <text id="d" sketch:type="MSTextLayer" font-family="Helvetica" font-size="12" font-weight="normal" fill="#000000">
                        <tspan x="11" y="72">d</tspan>
                    </text>
                </g>
            </g>
            <text id="Lists-immediately-af" sketch:type="MSTextLayer" font-family="Helvetica" font-size="12" font-weight="bold" fill="#000000">
                <tspan x="0" y="11">Lists immediately after (define w (append! x y))</tspan>
                <tspan x="0" y="25" font-family="Monaco" font-size="11" font-weight="normal">(cdr x) -&gt; (b c d)</tspan>
            </text>
        </g>
        <g id="q1-(z)" sketch:type="MSLayerGroup" transform="translate(16.000000, 323.000000)">
            <g id="list-x" transform="translate(1.000000, 49.000000)">
                <g id="a-cons" transform="translate(41.000000, 0.000000)">
                    <rect id="Rectangle-1" stroke="#979797" sketch:type="MSShapeGroup" x="0" y="0" width="30" height="30"></rect>
                    <rect id="Rectangle-1" stroke="#979797" sketch:type="MSShapeGroup" x="29" y="0" width="30" height="30"></rect>
                    <path d="M15,22 C18.8659934,22 22,18.8659934 22,15 C22,11.1340066 18.8659934,8 15,8 C11.1340066,8 8,11.1340066 8,15 C8,18.8659934 11.1340066,22 15,22 Z M44,22 C47.8659934,22 51,18.8659934 51,15 C51,11.1340066 47.8659934,8 44,8 C40.1340066,8 37,11.1340066 37,15 C37,18.8659934 40.1340066,22 44,22 Z" id="Oval-1" stroke="#979797" fill="#9B9B9B" sketch:type="MSShapeGroup"></path>
                    <path d="M49.5,15.5 L96.5,15.5" id="Line" stroke="#979797" stroke-linecap="square" sketch:type="MSShapeGroup"></path>
                    <path id="Line-decoration-1" d="M96.5,15.5 C92.72,14.45 89.48,13.55 85.7,12.5 C85.7,14.6 85.7,16.4 85.7,18.5 C89.48,17.45 92.72,16.55 96.5,15.5 C96.5,15.5 96.5,15.5 96.5,15.5 Z" stroke="#979797" stroke-linecap="square"></path>
                    <rect id="Rectangle-1" stroke="#979797" sketch:type="MSShapeGroup" x="0" y="53" width="30" height="30"></rect>
                    <path d="M14.5,14.5 L14.5,52.5" id="Line" stroke="#979797" stroke-linecap="square" sketch:type="MSShapeGroup"></path>
                    <path id="Line-decoration-1" d="M14.5,52.5 C15.55,48.72 16.45,45.4800001 17.5,41.7000001 C15.4,41.7 13.6,41.7 11.5,41.6999999 C12.55,45.4799999 13.45,48.72 14.5,52.5 C14.5,52.5 14.5,52.5 14.5,52.5 Z" stroke="#979797" stroke-linecap="square"></path>
                    <text id="a" sketch:type="MSTextLayer" font-family="Helvetica" font-size="12" font-weight="normal" fill="#000000">
                        <tspan x="11" y="72">a</tspan>
                    </text>
                </g>
                <g id="b-cons" transform="translate(140.000000, 0.000000)">
                    <path d="M58.5,0.5 L29.5,29.5" id="Line" stroke="#979797" stroke-linecap="square" sketch:type="MSShapeGroup"></path>
                    <rect id="Rectangle-1" stroke="#979797" sketch:type="MSShapeGroup" x="0" y="0" width="30" height="30"></rect>
                    <rect id="Rectangle-1" stroke="#979797" sketch:type="MSShapeGroup" x="29" y="0" width="30" height="30"></rect>
                    <path d="M15,22 C18.8659934,22 22,18.8659934 22,15 C22,11.1340066 18.8659934,8 15,8 C11.1340066,8 8,11.1340066 8,15 C8,18.8659934 11.1340066,22 15,22 Z" id="Oval-1" stroke="#979797" fill="#9B9B9B" sketch:type="MSShapeGroup"></path>
                    <rect id="Rectangle-1" stroke="#979797" sketch:type="MSShapeGroup" x="0" y="53" width="30" height="30"></rect>
                    <path d="M14.5,14.5 L14.5,52.5" id="Line" stroke="#979797" stroke-linecap="square" sketch:type="MSShapeGroup"></path>
                    <path id="Line-decoration-1" d="M14.5,52.5 C15.55,48.72 16.45,45.4800001 17.5,41.7000001 C15.4,41.7 13.6,41.7 11.5,41.6999999 C12.55,45.4799999 13.45,48.72 14.5,52.5 C14.5,52.5 14.5,52.5 14.5,52.5 Z" stroke="#979797" stroke-linecap="square"></path>
                    <text id="b" sketch:type="MSTextLayer" font-family="Helvetica" font-size="12" font-weight="normal" fill="#000000">
                        <tspan x="11" y="72">b</tspan>
                    </text>
                </g>
                <path d="M8.5,15.5 L39.5,15.5" id="Line" stroke="#979797" stroke-linecap="square" sketch:type="MSShapeGroup"></path>
                <path id="Line-decoration-1" d="M39.5,15.5 C35.72,14.45 32.48,13.55 28.7,12.5 C28.7,14.6 28.7,16.4 28.7,18.5 C32.48,17.45 35.72,16.55 39.5,15.5 C39.5,15.5 39.5,15.5 39.5,15.5 Z" stroke="#979797" stroke-linecap="square"></path>
                <text id="x" sketch:type="MSTextLayer" font-family="Helvetica" font-size="12" font-weight="normal" fill="#000000">
                    <tspan x="0" y="19">x</tspan>
                </text>
            </g>
            <g id="list-y" transform="translate(1.000000, 166.000000)">
                <g id="a-cons" transform="translate(41.000000, 0.000000)">
                    <rect id="Rectangle-1" stroke="#979797" sketch:type="MSShapeGroup" x="0" y="0" width="30" height="30"></rect>
                    <rect id="Rectangle-1" stroke="#979797" sketch:type="MSShapeGroup" x="29" y="0" width="30" height="30"></rect>
                    <path d="M15,22 C18.8659934,22 22,18.8659934 22,15 C22,11.1340066 18.8659934,8 15,8 C11.1340066,8 8,11.1340066 8,15 C8,18.8659934 11.1340066,22 15,22 Z M44,22 C47.8659934,22 51,18.8659934 51,15 C51,11.1340066 47.8659934,8 44,8 C40.1340066,8 37,11.1340066 37,15 C37,18.8659934 40.1340066,22 44,22 Z" id="Oval-1" stroke="#979797" fill="#9B9B9B" sketch:type="MSShapeGroup"></path>
                    <path d="M49.5,15.5 L96.5,15.5" id="Line" stroke="#979797" stroke-linecap="square" sketch:type="MSShapeGroup"></path>
                    <path id="Line-decoration-1" d="M96.5,15.5 C92.72,14.45 89.48,13.55 85.7,12.5 C85.7,14.6 85.7,16.4 85.7,18.5 C89.48,17.45 92.72,16.55 96.5,15.5 C96.5,15.5 96.5,15.5 96.5,15.5 Z" stroke="#979797" stroke-linecap="square"></path>
                    <rect id="Rectangle-1" stroke="#979797" sketch:type="MSShapeGroup" x="0" y="53" width="30" height="30"></rect>
                    <path d="M14.5,14.5 L14.5,52.5" id="Line" stroke="#979797" stroke-linecap="square" sketch:type="MSShapeGroup"></path>
                    <path id="Line-decoration-1" d="M14.5,52.5 C15.55,48.72 16.45,45.4800001 17.5,41.7000001 C15.4,41.7 13.6,41.7 11.5,41.6999999 C12.55,45.4799999 13.45,48.72 14.5,52.5 C14.5,52.5 14.5,52.5 14.5,52.5 Z" stroke="#979797" stroke-linecap="square"></path>
                    <text id="c" sketch:type="MSTextLayer" font-family="Helvetica" font-size="12" font-weight="normal" fill="#000000">
                        <tspan x="11" y="72">c</tspan>
                    </text>
                </g>
                <g id="b-cons" transform="translate(140.000000, 0.000000)">
                    <path d="M58.5,0.5 L29.5,29.5" id="Line" stroke="#979797" stroke-linecap="square" sketch:type="MSShapeGroup"></path>
                    <rect id="Rectangle-1" stroke="#979797" sketch:type="MSShapeGroup" x="0" y="0" width="30" height="30"></rect>
                    <rect id="Rectangle-1" stroke="#979797" sketch:type="MSShapeGroup" x="29" y="0" width="30" height="30"></rect>
                    <path d="M15,22 C18.8659934,22 22,18.8659934 22,15 C22,11.1340066 18.8659934,8 15,8 C11.1340066,8 8,11.1340066 8,15 C8,18.8659934 11.1340066,22 15,22 Z" id="Oval-1" stroke="#979797" fill="#9B9B9B" sketch:type="MSShapeGroup"></path>
                    <rect id="Rectangle-1" stroke="#979797" sketch:type="MSShapeGroup" x="0" y="53" width="30" height="30"></rect>
                    <path d="M14.5,14.5 L14.5,52.5" id="Line" stroke="#979797" stroke-linecap="square" sketch:type="MSShapeGroup"></path>
                    <path id="Line-decoration-1" d="M14.5,52.5 C15.55,48.72 16.45,45.4800001 17.5,41.7000001 C15.4,41.7 13.6,41.7 11.5,41.6999999 C12.55,45.4799999 13.45,48.72 14.5,52.5 C14.5,52.5 14.5,52.5 14.5,52.5 Z" stroke="#979797" stroke-linecap="square"></path>
                    <text id="d" sketch:type="MSTextLayer" font-family="Helvetica" font-size="12" font-weight="normal" fill="#000000">
                        <tspan x="11" y="72">d</tspan>
                    </text>
                </g>
                <path d="M8.5,15.5 L39.5,15.5" id="Line" stroke="#979797" stroke-linecap="square" sketch:type="MSShapeGroup"></path>
                <path id="Line-decoration-1" d="M39.5,15.5 C35.72,14.45 32.48,13.55 28.7,12.5 C28.7,14.6 28.7,16.4 28.7,18.5 C32.48,17.45 35.72,16.55 39.5,15.5 C39.5,15.5 39.5,15.5 39.5,15.5 Z" stroke="#979797" stroke-linecap="square"></path>
                <text id="y" sketch:type="MSTextLayer" font-family="Helvetica" font-size="12" font-weight="normal" fill="#000000">
                    <tspan x="0" y="19">y</tspan>
                </text>
            </g>
            <text id="Lists-immediately-af" sketch:type="MSTextLayer" font-family="Helvetica" font-size="12" font-weight="bold" fill="#000000">
                <tspan x="0" y="11">Lists immediately after (define z (append x y))</tspan>
                <tspan x="0" y="25" font-family="Monaco" font-size="11" font-weight="normal">(cdr x) -&gt; (b)</tspan>
            </text>
            <g id="list-z" transform="translate(0.000000, 283.000000)">
                <g id="a-cons" transform="translate(41.000000, 0.000000)">
                    <rect id="Rectangle-1" stroke="#979797" sketch:type="MSShapeGroup" x="0" y="0" width="30" height="30"></rect>
                    <rect id="Rectangle-1" stroke="#979797" sketch:type="MSShapeGroup" x="29" y="0" width="30" height="30"></rect>
                    <path d="M15,22 C18.8659934,22 22,18.8659934 22,15 C22,11.1340066 18.8659934,8 15,8 C11.1340066,8 8,11.1340066 8,15 C8,18.8659934 11.1340066,22 15,22 Z M44,22 C47.8659934,22 51,18.8659934 51,15 C51,11.1340066 47.8659934,8 44,8 C40.1340066,8 37,11.1340066 37,15 C37,18.8659934 40.1340066,22 44,22 Z" id="Oval-1" stroke="#979797" fill="#9B9B9B" sketch:type="MSShapeGroup"></path>
                    <path d="M49.5,15.5 L96.5,15.5" id="Line" stroke="#979797" stroke-linecap="square" sketch:type="MSShapeGroup"></path>
                    <path id="Line-decoration-1" d="M96.5,15.5 C92.72,14.45 89.48,13.55 85.7,12.5 C85.7,14.6 85.7,16.4 85.7,18.5 C89.48,17.45 92.72,16.55 96.5,15.5 C96.5,15.5 96.5,15.5 96.5,15.5 Z" stroke="#979797" stroke-linecap="square"></path>
                    <path d="M144.5,15.5 L191.5,15.5" id="Line" stroke="#979797" stroke-linecap="square" sketch:type="MSShapeGroup"></path>
                    <path id="Line-decoration-1" d="M191.5,15.5 C187.72,14.45 184.48,13.55 180.7,12.5 C180.7,14.6 180.7,16.4 180.7,18.5 C184.48,17.45 187.72,16.55 191.5,15.5 C191.5,15.5 191.5,15.5 191.5,15.5 Z" stroke="#979797" stroke-linecap="square"></path>
                    <rect id="Rectangle-1" stroke="#979797" sketch:type="MSShapeGroup" x="0" y="53" width="30" height="30"></rect>
                    <path d="M14.5,14.5 L14.5,52.5" id="Line" stroke="#979797" stroke-linecap="square" sketch:type="MSShapeGroup"></path>
                    <path id="Line-decoration-1" d="M14.5,52.5 C15.55,48.72 16.45,45.4800001 17.5,41.7000001 C15.4,41.7 13.6,41.7 11.5,41.6999999 C12.55,45.4799999 13.45,48.72 14.5,52.5 C14.5,52.5 14.5,52.5 14.5,52.5 Z" stroke="#979797" stroke-linecap="square"></path>
                    <text id="a" sketch:type="MSTextLayer" font-family="Helvetica" font-size="12" font-weight="normal" fill="#000000">
                        <tspan x="11" y="72">a</tspan>
                    </text>
                </g>
                <g id="b-cons" transform="translate(140.000000, 0.000000)">
                    <rect id="Rectangle-1" stroke="#979797" sketch:type="MSShapeGroup" x="0" y="0" width="30" height="30"></rect>
                    <rect id="Rectangle-1" stroke="#979797" sketch:type="MSShapeGroup" x="29" y="0" width="30" height="30"></rect>
                    <path d="M15,22 C18.8659934,22 22,18.8659934 22,15 C22,11.1340066 18.8659934,8 15,8 C11.1340066,8 8,11.1340066 8,15 C8,18.8659934 11.1340066,22 15,22 Z" id="Oval-1" stroke="#979797" fill="#9B9B9B" sketch:type="MSShapeGroup"></path>
                    <path d="M43,22 C46.8659934,22 50,18.8659934 50,15 C50,11.1340066 46.8659934,8 43,8 C39.1340066,8 36,11.1340066 36,15 C36,18.8659934 39.1340066,22 43,22 Z" id="Oval-1" stroke="#979797" fill="#9B9B9B" sketch:type="MSShapeGroup"></path>
                    <rect id="Rectangle-1" stroke="#979797" sketch:type="MSShapeGroup" x="0" y="53" width="30" height="30"></rect>
                    <path d="M14.5,14.5 L14.5,52.5" id="Line" stroke="#979797" stroke-linecap="square" sketch:type="MSShapeGroup"></path>
                    <path id="Line-decoration-1" d="M14.5,52.5 C15.55,48.72 16.45,45.4800001 17.5,41.7000001 C15.4,41.7 13.6,41.7 11.5,41.6999999 C12.55,45.4799999 13.45,48.72 14.5,52.5 C14.5,52.5 14.5,52.5 14.5,52.5 Z" stroke="#979797" stroke-linecap="square"></path>
                    <text id="b" sketch:type="MSTextLayer" font-family="Helvetica" font-size="12" font-weight="normal" fill="#000000">
                        <tspan x="11" y="72">b</tspan>
                    </text>
                </g>
                <path d="M8.5,15.5 L39.5,15.5" id="Line" stroke="#979797" stroke-linecap="square" sketch:type="MSShapeGroup"></path>
                <path id="Line-decoration-1" d="M39.5,15.5 C35.72,14.45 32.48,13.55 28.7,12.5 C28.7,14.6 28.7,16.4 28.7,18.5 C32.48,17.45 35.72,16.55 39.5,15.5 C39.5,15.5 39.5,15.5 39.5,15.5 Z" stroke="#979797" stroke-linecap="square"></path>
                <text id="z" sketch:type="MSTextLayer" font-family="Helvetica" font-size="12" font-weight="normal" fill="#000000">
                    <tspan x="0" y="19">z</tspan>
                </text>
                <g id="a-cons" transform="translate(234.000000, 0.000000)">
                    <rect id="Rectangle-1" stroke="#979797" sketch:type="MSShapeGroup" x="0" y="0" width="30" height="30"></rect>
                    <rect id="Rectangle-1" stroke="#979797" sketch:type="MSShapeGroup" x="29" y="0" width="30" height="30"></rect>
                    <path d="M15,22 C18.8659934,22 22,18.8659934 22,15 C22,11.1340066 18.8659934,8 15,8 C11.1340066,8 8,11.1340066 8,15 C8,18.8659934 11.1340066,22 15,22 Z M44,22 C47.8659934,22 51,18.8659934 51,15 C51,11.1340066 47.8659934,8 44,8 C40.1340066,8 37,11.1340066 37,15 C37,18.8659934 40.1340066,22 44,22 Z" id="Oval-1" stroke="#979797" fill="#9B9B9B" sketch:type="MSShapeGroup"></path>
                    <path d="M49.5,15.5 L96.5,15.5" id="Line" stroke="#979797" stroke-linecap="square" sketch:type="MSShapeGroup"></path>
                    <path id="Line-decoration-1" d="M96.5,15.5 C92.72,14.45 89.48,13.55 85.7,12.5 C85.7,14.6 85.7,16.4 85.7,18.5 C89.48,17.45 92.72,16.55 96.5,15.5 C96.5,15.5 96.5,15.5 96.5,15.5 Z" stroke="#979797" stroke-linecap="square"></path>
                    <rect id="Rectangle-1" stroke="#979797" sketch:type="MSShapeGroup" x="0" y="53" width="30" height="30"></rect>
                    <path d="M14.5,14.5 L14.5,52.5" id="Line" stroke="#979797" stroke-linecap="square" sketch:type="MSShapeGroup"></path>
                    <path id="Line-decoration-1" d="M14.5,52.5 C15.55,48.72 16.45,45.4800001 17.5,41.7000001 C15.4,41.7 13.6,41.7 11.5,41.6999999 C12.55,45.4799999 13.45,48.72 14.5,52.5 C14.5,52.5 14.5,52.5 14.5,52.5 Z" stroke="#979797" stroke-linecap="square"></path>
                    <text id="c" sketch:type="MSTextLayer" font-family="Helvetica" font-size="12" font-weight="normal" fill="#000000">
                        <tspan x="11" y="72">c</tspan>
                    </text>
                </g>
                <g id="b-cons" transform="translate(332.000000, 0.000000)">
                    <path d="M58.5,0.5 L29.5,29.5" id="Line" stroke="#979797" stroke-linecap="square" sketch:type="MSShapeGroup"></path>
                    <rect id="Rectangle-1" stroke="#979797" sketch:type="MSShapeGroup" x="0" y="0" width="30" height="30"></rect>
                    <rect id="Rectangle-1" stroke="#979797" sketch:type="MSShapeGroup" x="29" y="0" width="30" height="30"></rect>
                    <path d="M15,22 C18.8659934,22 22,18.8659934 22,15 C22,11.1340066 18.8659934,8 15,8 C11.1340066,8 8,11.1340066 8,15 C8,18.8659934 11.1340066,22 15,22 Z" id="Oval-1" stroke="#979797" fill="#9B9B9B" sketch:type="MSShapeGroup"></path>
                    <rect id="Rectangle-1" stroke="#979797" sketch:type="MSShapeGroup" x="0" y="53" width="30" height="30"></rect>
                    <path d="M14.5,14.5 L14.5,52.5" id="Line" stroke="#979797" stroke-linecap="square" sketch:type="MSShapeGroup"></path>
                    <path id="Line-decoration-1" d="M14.5,52.5 C15.55,48.72 16.45,45.4800001 17.5,41.7000001 C15.4,41.7 13.6,41.7 11.5,41.6999999 C12.55,45.4799999 13.45,48.72 14.5,52.5 C14.5,52.5 14.5,52.5 14.5,52.5 Z" stroke="#979797" stroke-linecap="square"></path>
                    <text id="d" sketch:type="MSTextLayer" font-family="Helvetica" font-size="12" font-weight="normal" fill="#000000">
                        <tspan x="11" y="72">d</tspan>
                    </text>
                </g>
            </g>
        </g>
    </g>
</svg>