<?xml version="1.0" encoding="UTF-8" standalone="no"?>
<svg width="362px" height="226px" viewBox="0 0 362 226" version="1.1" xmlns="http://www.w3.org/2000/svg" xmlns:xlink="http://www.w3.org/1999/xlink" xmlns:sketch="http://www.bohemiancoding.com/sketch/ns">
    <title>13</title>
    <description>Created with Sketch (http://www.bohemiancoding.com/sketch)</description>
    <defs></defs>
    <g id="Page-1" stroke="none" stroke-width="1" fill="none" fill-rule="evenodd" sketch:type="MSPage">
        <g id="a-cons" sketch:type="MSLayerGroup" transform="translate(53.000000, 89.000000)">
            <rect id="Rectangle-1" stroke="#979797" sketch:type="MSShapeGroup" x="0" y="0" width="30" height="30"></rect>
            <rect id="Rectangle-1" stroke="#979797" sketch:type="MSShapeGroup" x="29" y="0" width="30" height="30"></rect>
            <path d="M15,22 C18.8659934,22 22,18.8659934 22,15 C22,11.1340066 18.8659934,8 15,8 C11.1340066,8 8,11.1340066 8,15 C8,18.8659934 11.1340066,22 15,22 Z M44,22 C47.8659934,22 51,18.8659934 51,15 C51,11.1340066 47.8659934,8 44,8 C40.1340066,8 37,11.1340066 37,15 C37,18.8659934 40.1340066,22 44,22 Z" id="Oval-1" stroke="#979797" fill="#9B9B9B" sketch:type="MSShapeGroup"></path>
            <path d="M49.5,15.5 L96.5,15.5" id="Line" stroke="#979797" stroke-linecap="square" sketch:type="MSShapeGroup"></path>
            <path id="Line-decoration-1" d="M96.5,15.5 C92.72,14.45 89.48,13.55 85.7,12.5 C85.7,14.6 85.7,16.4 85.7,18.5 C89.48,17.45 92.72,16.55 96.5,15.5 C96.5,15.5 96.5,15.5 96.5,15.5 Z" stroke="#979797" stroke-linecap="square"></path>
            <path d="M144.5,15.5 L191.5,15.5" id="Line" stroke="#979797" stroke-linecap="square" sketch:type="MSShapeGroup"></path>
            <path id="Line-decoration-1" d="M191.5,15.5 C187.72,14.45 184.48,13.55 180.7,12.5 C180.7,14.6 180.7,16.4 180.7,18.5 C184.48,17.45 187.72,16.55 191.5,15.5 C191.5,15.5 191.5,15.5 191.5,15.5 Z" stroke="#979797" stroke-linecap="square"></path>
            <rect id="Rectangle-1" stroke="#979797" sketch:type="MSShapeGroup" x="0" y="53" width="30" height="30"></rect>
            <path d="M14.5,14.5 L14.5,52.5" id="Line" stroke="#979797" stroke-linecap="square" sketch:type="MSShapeGroup"></path>
            <path id="Line-decoration-1" d="M14.5,52.5 C15.55,48.72 16.45,45.4800001 17.5,41.7000001 C15.4,41.7 13.6,41.7 11.5,41.6999999 C12.55,45.4799999 13.45,48.72 14.5,52.5 C14.5,52.5 14.5,52.5 14.5,52.5 Z" stroke="#979797" stroke-linecap="square"></path>
            <text id="a" sketch:type="MSTextLayer" font-family="Helvetica" font-size="12" font-weight="normal" fill="#000000">
                <tspan x="11" y="72">a</tspan>
            </text>
        </g>
        <g id="b-cons" sketch:type="MSLayerGroup" transform="translate(152.000000, 89.000000)">
            <rect id="Rectangle-1" stroke="#979797" sketch:type="MSShapeGroup" x="0" y="0" width="30" height="30"></rect>
            <rect id="Rectangle-1" stroke="#979797" sketch:type="MSShapeGroup" x="29" y="0" width="30" height="30"></rect>
            <path d="M15,22 C18.8659934,22 22,18.8659934 22,15 C22,11.1340066 18.8659934,8 15,8 C11.1340066,8 8,11.1340066 8,15 C8,18.8659934 11.1340066,22 15,22 Z" id="Oval-1" stroke="#979797" fill="#9B9B9B" sketch:type="MSShapeGroup"></path>
            <path d="M43,22 C46.8659934,22 50,18.8659934 50,15 C50,11.1340066 46.8659934,8 43,8 C39.1340066,8 36,11.1340066 36,15 C36,18.8659934 39.1340066,22 43,22 Z" id="Oval-1" stroke="#979797" fill="#9B9B9B" sketch:type="MSShapeGroup"></path>
            <rect id="Rectangle-1" stroke="#979797" sketch:type="MSShapeGroup" x="0" y="53" width="30" height="30"></rect>
            <path d="M14.5,14.5 L14.5,52.5" id="Line" stroke="#979797" stroke-linecap="square" sketch:type="MSShapeGroup"></path>
            <path id="Line-decoration-1" d="M14.5,52.5 C15.55,48.72 16.45,45.4800001 17.5,41.7000001 C15.4,41.7 13.6,41.7 11.5,41.6999999 C12.55,45.4799999 13.45,48.72 14.5,52.5 C14.5,52.5 14.5,52.5 14.5,52.5 Z" stroke="#979797" stroke-linecap="square"></path>
            <text id="b" sketch:type="MSTextLayer" font-family="Helvetica" font-size="12" font-weight="normal" fill="#000000">
                <tspan x="11" y="72">b</tspan>
            </text>
        </g>
        <path d="M20.5,104.5 L51.5,104.5" id="Line" stroke="#979797" stroke-linecap="square" sketch:type="MSShapeGroup"></path>
        <path id="Line-decoration-1" d="M51.5,104.5 C47.72,103.45 44.48,102.55 40.7,101.5 C40.7,103.6 40.7,105.4 40.7,107.5 C44.48,106.45 47.72,105.55 51.5,104.5 C51.5,104.5 51.5,104.5 51.5,104.5 Z" stroke="#979797" stroke-linecap="square"></path>
        <text id="z" sketch:type="MSTextLayer" font-family="Helvetica" font-size="12" font-weight="normal" fill="#000000">
            <tspan x="12" y="108">z</tspan>
        </text>
        <g id="a-cons" sketch:type="MSLayerGroup" transform="translate(246.000000, 89.000000)">
            <rect id="Rectangle-1" stroke="#979797" sketch:type="MSShapeGroup" x="0" y="0" width="30" height="30"></rect>
            <rect id="Rectangle-1" stroke="#979797" sketch:type="MSShapeGroup" x="29" y="0" width="30" height="30"></rect>
            <path d="M15,22 C18.8659934,22 22,18.8659934 22,15 C22,11.1340066 18.8659934,8 15,8 C11.1340066,8 8,11.1340066 8,15 C8,18.8659934 11.1340066,22 15,22 Z M44,22 C47.8659934,22 51,18.8659934 51,15 C51,11.1340066 47.8659934,8 44,8 C40.1340066,8 37,11.1340066 37,15 C37,18.8659934 40.1340066,22 44,22 Z" id="Oval-1" stroke="#979797" fill="#9B9B9B" sketch:type="MSShapeGroup"></path>
            <rect id="Rectangle-1" stroke="#979797" sketch:type="MSShapeGroup" x="0" y="53" width="30" height="30"></rect>
            <path d="M14.5,14.5 L14.5,52.5" id="Line" stroke="#979797" stroke-linecap="square" sketch:type="MSShapeGroup"></path>
            <path id="Line-decoration-1" d="M14.5,52.5 C15.55,48.72 16.45,45.4800001 17.5,41.7000001 C15.4,41.7 13.6,41.7 11.5,41.6999999 C12.55,45.4799999 13.45,48.72 14.5,52.5 C14.5,52.5 14.5,52.5 14.5,52.5 Z" stroke="#979797" stroke-linecap="square"></path>
            <text id="c" sketch:type="MSTextLayer" font-family="Helvetica" font-size="12" font-weight="normal" fill="#000000">
                <tspan x="11" y="72">c</tspan>
            </text>
        </g>
        <path d="M289.5,103.5 L289.5,63.5" id="Line" stroke="#979797" stroke-linecap="square" sketch:type="MSShapeGroup"></path>
        <path d="M289.5,62.5 L66.5,62.5" id="Line" stroke="#979797" stroke-linecap="square" sketch:type="MSShapeGroup"></path>
        <path d="M66.5,62.5 L66.5,86.5" id="Line" stroke="#979797" stroke-linecap="square" sketch:type="MSShapeGroup"></path>
        <path id="Line-decoration-1" d="M66.5,86.5 C67.55,82.72 68.45,79.4800001 69.5,75.7000001 C67.4,75.7 65.6,75.7 63.5,75.6999999 C64.55,79.4799999 65.45,82.72 66.5,86.5 C66.5,86.5 66.5,86.5 66.5,86.5 Z" stroke="#979797" stroke-linecap="square"></path>
        <text id="Result-of-(define-z-" sketch:type="MSTextLayer" font-family="Helvetica" font-size="12" font-weight="normal" fill="#000000">
            <tspan x="12" y="21">Result of </tspan>
            <tspan x="62.6894531" y="21" font-family="Monaco" font-size="11">(define z (make-cycle (list ‘a ‘b ‘c)))</tspan>
        </text>
        <text id="Calling-(last-pair-z" sketch:type="MSTextLayer" font-family="Helvetica" font-size="12" font-weight="normal" fill="#000000">
            <tspan x="11" y="205">Calling </tspan>
            <tspan x="51.0195312" y="205" font-family="Monaco" font-size="11">(last-pair z)</tspan>
            <tspan x="136.833496" y="205"> results in a program which runs forever.</tspan>
        </text>
    </g>
</svg>