<?xml version="1.0" encoding="UTF-8" standalone="no"?>
<svg width="340px" height="891px" viewBox="0 0 340 891" version="1.1" xmlns="http://www.w3.org/2000/svg" xmlns:xlink="http://www.w3.org/1999/xlink" xmlns:sketch="http://www.bohemiancoding.com/sketch/ns">
    <title>15</title>
    <description>Created with Sketch (http://www.bohemiancoding.com/sketch)</description>
    <defs></defs>
    <g id="Page-1" stroke="none" stroke-width="1" fill="none" fill-rule="evenodd" sketch:type="MSPage">
        <g id="a-cons" sketch:type="MSLayerGroup" transform="translate(64.000000, 120.000000)">
            <rect id="Rectangle-1" stroke="#979797" sketch:type="MSShapeGroup" x="0" y="0" width="30" height="30"></rect>
            <rect id="Rectangle-1" stroke="#979797" sketch:type="MSShapeGroup" x="29" y="0" width="30" height="30"></rect>
            <path d="M15,22 C18.8659934,22 22,18.8659934 22,15 C22,11.1340066 18.8659934,8 15,8 C11.1340066,8 8,11.1340066 8,15 C8,18.8659934 11.1340066,22 15,22 Z M44,22 C47.8659934,22 51,18.8659934 51,15 C51,11.1340066 47.8659934,8 44,8 C40.1340066,8 37,11.1340066 37,15 C37,18.8659934 40.1340066,22 44,22 Z" id="Oval-1" stroke="#979797" fill="#9B9B9B" sketch:type="MSShapeGroup"></path>
            <path d="M49.5,15.5 L96.5,15.5" id="Line" stroke="#979797" stroke-linecap="square" sketch:type="MSShapeGroup"></path>
            <path id="Line-decoration-1" d="M96.5,15.5 C92.72,14.45 89.48,13.55 85.7,12.5 C85.7,14.6 85.7,16.4 85.7,18.5 C89.48,17.45 92.72,16.55 96.5,15.5 C96.5,15.5 96.5,15.5 96.5,15.5 Z" stroke="#979797" stroke-linecap="square"></path>
            <rect id="Rectangle-1" stroke="#979797" sketch:type="MSShapeGroup" x="0" y="53" width="30" height="30"></rect>
            <path d="M14.5,14.5 L14.5,52.5" id="Line" stroke="#979797" stroke-linecap="square" sketch:type="MSShapeGroup"></path>
            <path id="Line-decoration-1" d="M14.5,52.5 C15.55,48.72 16.45,45.4800001 17.5,41.7000001 C15.4,41.7 13.6,41.7 11.5,41.6999999 C12.55,45.4799999 13.45,48.72 14.5,52.5 C14.5,52.5 14.5,52.5 14.5,52.5 Z" stroke="#979797" stroke-linecap="square"></path>
            <text id="a" sketch:type="MSTextLayer" font-family="Helvetica" font-size="12" font-weight="normal" fill="#000000">
                <tspan x="11" y="72">a</tspan>
            </text>
        </g>
        <g id="b-cons" sketch:type="MSLayerGroup" transform="translate(163.000000, 120.000000)">
            <path d="M58.5,0.5 L29.5,29.5" id="Line" stroke="#979797" stroke-linecap="square" sketch:type="MSShapeGroup"></path>
            <rect id="Rectangle-1" stroke="#979797" sketch:type="MSShapeGroup" x="0" y="0" width="30" height="30"></rect>
            <rect id="Rectangle-1" stroke="#979797" sketch:type="MSShapeGroup" x="29" y="0" width="30" height="30"></rect>
            <path d="M15,22 C18.8659934,22 22,18.8659934 22,15 C22,11.1340066 18.8659934,8 15,8 C11.1340066,8 8,11.1340066 8,15 C8,18.8659934 11.1340066,22 15,22 Z" id="Oval-1" stroke="#979797" fill="#9B9B9B" sketch:type="MSShapeGroup"></path>
            <rect id="Rectangle-1" stroke="#979797" sketch:type="MSShapeGroup" x="0" y="53" width="30" height="30"></rect>
            <path d="M14.5,14.5 L14.5,52.5" id="Line" stroke="#979797" stroke-linecap="square" sketch:type="MSShapeGroup"></path>
            <path id="Line-decoration-1" d="M14.5,52.5 C15.55,48.72 16.45,45.4800001 17.5,41.7000001 C15.4,41.7 13.6,41.7 11.5,41.6999999 C12.55,45.4799999 13.45,48.72 14.5,52.5 C14.5,52.5 14.5,52.5 14.5,52.5 Z" stroke="#979797" stroke-linecap="square"></path>
            <text id="b" sketch:type="MSTextLayer" font-family="Helvetica" font-size="12" font-weight="normal" fill="#000000">
                <tspan x="11" y="72">b</tspan>
            </text>
        </g>
        <g id="a-cons" sketch:type="MSLayerGroup" transform="translate(162.000000, 238.000000)">
            <rect id="Rectangle-1" stroke="#979797" sketch:type="MSShapeGroup" x="0" y="0" width="30" height="30"></rect>
            <rect id="Rectangle-1" stroke="#979797" sketch:type="MSShapeGroup" x="29" y="0" width="30" height="30"></rect>
            <path d="M15,22 C18.8659934,22 22,18.8659934 22,15 C22,11.1340066 18.8659934,8 15,8 C11.1340066,8 8,11.1340066 8,15 C8,18.8659934 11.1340066,22 15,22 Z M44,22 C47.8659934,22 51,18.8659934 51,15 C51,11.1340066 47.8659934,8 44,8 C40.1340066,8 37,11.1340066 37,15 C37,18.8659934 40.1340066,22 44,22 Z" id="Oval-1" stroke="#979797" fill="#9B9B9B" sketch:type="MSShapeGroup"></path>
            <path d="M49.5,15.5 L96.5,15.5" id="Line" stroke="#979797" stroke-linecap="square" sketch:type="MSShapeGroup"></path>
            <path id="Line-decoration-1" d="M96.5,15.5 C92.72,14.45 89.48,13.55 85.7,12.5 C85.7,14.6 85.7,16.4 85.7,18.5 C89.48,17.45 92.72,16.55 96.5,15.5 C96.5,15.5 96.5,15.5 96.5,15.5 Z" stroke="#979797" stroke-linecap="square"></path>
            <rect id="Rectangle-1" stroke="#979797" sketch:type="MSShapeGroup" x="0" y="53" width="30" height="30"></rect>
            <path d="M14.5,14.5 L14.5,52.5" id="Line" stroke="#979797" stroke-linecap="square" sketch:type="MSShapeGroup"></path>
            <path id="Line-decoration-1" d="M14.5,52.5 C15.55,48.72 16.45,45.4800001 17.5,41.7000001 C15.4,41.7 13.6,41.7 11.5,41.6999999 C12.55,45.4799999 13.45,48.72 14.5,52.5 C14.5,52.5 14.5,52.5 14.5,52.5 Z" stroke="#979797" stroke-linecap="square"></path>
            <text id="a" sketch:type="MSTextLayer" font-family="Helvetica" font-size="12" font-weight="normal" fill="#000000">
                <tspan x="11" y="72">a</tspan>
            </text>
        </g>
        <g id="b-cons" sketch:type="MSLayerGroup" transform="translate(261.000000, 238.000000)">
            <path d="M58.5,0.5 L29.5,29.5" id="Line" stroke="#979797" stroke-linecap="square" sketch:type="MSShapeGroup"></path>
            <rect id="Rectangle-1" stroke="#979797" sketch:type="MSShapeGroup" x="0" y="0" width="30" height="30"></rect>
            <rect id="Rectangle-1" stroke="#979797" sketch:type="MSShapeGroup" x="29" y="0" width="30" height="30"></rect>
            <path d="M15,22 C18.8659934,22 22,18.8659934 22,15 C22,11.1340066 18.8659934,8 15,8 C11.1340066,8 8,11.1340066 8,15 C8,18.8659934 11.1340066,22 15,22 Z" id="Oval-1" stroke="#979797" fill="#9B9B9B" sketch:type="MSShapeGroup"></path>
            <rect id="Rectangle-1" stroke="#979797" sketch:type="MSShapeGroup" x="0" y="53" width="30" height="30"></rect>
            <path d="M14.5,14.5 L14.5,52.5" id="Line" stroke="#979797" stroke-linecap="square" sketch:type="MSShapeGroup"></path>
            <path id="Line-decoration-1" d="M14.5,52.5 C15.55,48.72 16.45,45.4800001 17.5,41.7000001 C15.4,41.7 13.6,41.7 11.5,41.6999999 C12.55,45.4799999 13.45,48.72 14.5,52.5 C14.5,52.5 14.5,52.5 14.5,52.5 Z" stroke="#979797" stroke-linecap="square"></path>
            <text id="b" sketch:type="MSTextLayer" font-family="Helvetica" font-size="12" font-weight="normal" fill="#000000">
                <tspan x="11" y="72">b</tspan>
            </text>
        </g>
        <path d="M31.5,79.5 L62.5,79.5" id="Line" stroke="#979797" stroke-linecap="square" sketch:type="MSShapeGroup"></path>
        <path id="Line-decoration-1" d="M62.5,79.5 C58.72,78.45 55.48,77.55 51.7,76.5 C51.7,78.6 51.7,80.4 51.7,82.5 C55.48,81.45 58.72,80.55 62.5,79.5 C62.5,79.5 62.5,79.5 62.5,79.5 Z" stroke="#979797" stroke-linecap="square"></path>
        <text id="z1" sketch:type="MSTextLayer" font-family="Helvetica" font-size="12" font-weight="normal" fill="#000000">
            <tspan x="18" y="83">z1</tspan>
        </text>
        <g id="a-cons" sketch:type="MSLayerGroup" transform="translate(64.000000, 65.000000)" stroke="#979797">
            <rect id="Rectangle-1" sketch:type="MSShapeGroup" x="0" y="0" width="30" height="30"></rect>
            <rect id="Rectangle-1" sketch:type="MSShapeGroup" x="29" y="0" width="30" height="30"></rect>
            <path d="M15,22 C18.8659934,22 22,18.8659934 22,15 C22,11.1340066 18.8659934,8 15,8 C11.1340066,8 8,11.1340066 8,15 C8,18.8659934 11.1340066,22 15,22 Z M44,22 C47.8659934,22 51,18.8659934 51,15 C51,11.1340066 47.8659934,8 44,8 C40.1340066,8 37,11.1340066 37,15 C37,18.8659934 40.1340066,22 44,22 Z" id="Oval-1" fill="#9B9B9B" sketch:type="MSShapeGroup"></path>
            <path d="M14.5,14.5 L14.5,52.5" id="Line" stroke-linecap="square" sketch:type="MSShapeGroup"></path>
            <path id="Line-decoration-1" d="M14.5,52.5 C15.55,48.72 16.45,45.4800001 17.5,41.7000001 C15.4,41.7 13.6,41.7 11.5,41.6999999 C12.55,45.4799999 13.45,48.72 14.5,52.5 C14.5,52.5 14.5,52.5 14.5,52.5 Z" stroke-linecap="square"></path>
            <path d="M44.5,14.5 L44.5,52.5" id="Line" stroke-linecap="square" sketch:type="MSShapeGroup"></path>
            <path id="Line-decoration-1" d="M44.5,52.5 C45.55,48.72 46.45,45.4800001 47.5,41.7000001 C45.4,41.7 43.6,41.7 41.5,41.6999999 C42.55,45.4799999 43.45,48.72 44.5,52.5 C44.5,52.5 44.5,52.5 44.5,52.5 Z" stroke-linecap="square"></path>
        </g>
        <path d="M30.5,252.5 L61.5,252.5" id="Line" stroke="#979797" stroke-linecap="square" sketch:type="MSShapeGroup"></path>
        <path id="Line-decoration-1" d="M61.5,252.5 C57.72,251.45 54.48,250.55 50.7,249.5 C50.7,251.6 50.7,253.4 50.7,255.5 C54.48,254.45 57.72,253.55 61.5,252.5 C61.5,252.5 61.5,252.5 61.5,252.5 Z" stroke="#979797" stroke-linecap="square"></path>
        <text id="z2" sketch:type="MSTextLayer" font-family="Helvetica" font-size="12" font-weight="normal" fill="#000000">
            <tspan x="17" y="256">z2</tspan>
        </text>
        <g id="a-cons" sketch:type="MSLayerGroup" transform="translate(64.000000, 238.000000)" stroke="#979797">
            <rect id="Rectangle-1" sketch:type="MSShapeGroup" x="0" y="0" width="30" height="30"></rect>
            <rect id="Rectangle-1" sketch:type="MSShapeGroup" x="29" y="0" width="30" height="30"></rect>
            <path d="M15,22 C18.8659934,22 22,18.8659934 22,15 C22,11.1340066 18.8659934,8 15,8 C11.1340066,8 8,11.1340066 8,15 C8,18.8659934 11.1340066,22 15,22 Z M44,22 C47.8659934,22 51,18.8659934 51,15 C51,11.1340066 47.8659934,8 44,8 C40.1340066,8 37,11.1340066 37,15 C37,18.8659934 40.1340066,22 44,22 Z" id="Oval-1" fill="#9B9B9B" sketch:type="MSShapeGroup"></path>
            <path d="M44.5,14.5 L96.5,14.5" id="Line" stroke-linecap="square" sketch:type="MSShapeGroup"></path>
            <path id="Line-decoration-1" d="M96.5,14.5 C92.72,13.45 89.48,12.55 85.7,11.5 C85.7,13.6 85.7,15.4 85.7,17.5 C89.48,16.45 92.72,15.55 96.5,14.5 C96.5,14.5 96.5,14.5 96.5,14.5 Z" stroke-linecap="square"></path>
        </g>
        <path d="M79.5,252.5 L79.5,361.5" id="Line" stroke="#979797" stroke-linecap="square" sketch:type="MSShapeGroup"></path>
        <g id="a-cons" sketch:type="MSLayerGroup" transform="translate(162.000000, 321.000000)" stroke="#979797">
            <rect id="Rectangle-1" sketch:type="MSShapeGroup" x="0" y="26" width="30" height="30"></rect>
            <rect id="Rectangle-1" sketch:type="MSShapeGroup" x="29" y="26" width="30" height="30"></rect>
            <path d="M15,48 C18.8659934,48 22,44.8659934 22,41 C22,37.1340066 18.8659934,34 15,34 C11.1340066,34 8,37.1340066 8,41 C8,44.8659934 11.1340066,48 15,48 Z M44,48 C47.8659934,48 51,44.8659934 51,41 C51,37.1340066 47.8659934,34 44,34 C40.1340066,34 37,37.1340066 37,41 C37,44.8659934 40.1340066,48 44,48 Z" id="Oval-1" fill="#9B9B9B" sketch:type="MSShapeGroup"></path>
            <path d="M49.5,41.5 L96.5,41.5" id="Line" stroke-linecap="square" sketch:type="MSShapeGroup"></path>
            <path id="Line-decoration-1" d="M96.5,41.5 C92.72,40.45 89.48,39.55 85.7,38.5 C85.7,40.6 85.7,42.4 85.7,44.5 C89.48,43.45 92.72,42.55 96.5,41.5 C96.5,41.5 96.5,41.5 96.5,41.5 Z" stroke-linecap="square"></path>
            <path d="M14.5,40.5 L14.5,0.5" id="Line" stroke-linecap="square" sketch:type="MSShapeGroup"></path>
            <path id="Line-decoration-1" d="M14.5,0.5 C13.45,4.28000005 12.55,7.52000009 11.5,11.3000001 C13.6,11.3 15.4,11.3 17.5,11.2999999 C16.45,7.51999991 15.55,4.27999995 14.5,0.5 C14.5,0.5 14.5,0.5 14.5,0.5 Z" stroke-linecap="square"></path>
        </g>
        <g id="b-cons" sketch:type="MSLayerGroup" transform="translate(261.000000, 321.000000)" stroke="#979797">
            <path d="M58.5,27.5 L29.5,56.5" id="Line" stroke-linecap="square" sketch:type="MSShapeGroup"></path>
            <rect id="Rectangle-1" sketch:type="MSShapeGroup" x="0" y="27" width="30" height="30"></rect>
            <rect id="Rectangle-1" sketch:type="MSShapeGroup" x="29" y="27" width="30" height="30"></rect>
            <path d="M15,49 C18.8659934,49 22,45.8659934 22,42 C22,38.1340066 18.8659934,35 15,35 C11.1340066,35 8,38.1340066 8,42 C8,45.8659934 11.1340066,49 15,49 Z" id="Oval-1" fill="#9B9B9B" sketch:type="MSShapeGroup"></path>
            <path d="M14.5,41.5 L14.5,0.5" id="Line" stroke-linecap="square" sketch:type="MSShapeGroup"></path>
            <path id="Line-decoration-1" d="M14.5,0.5 C13.45,4.28000005 12.55,7.52000009 11.5,11.3000001 C13.6,11.3 15.4,11.3 17.5,11.2999999 C16.45,7.51999991 15.55,4.27999995 14.5,0.5 C14.5,0.5 14.5,0.5 14.5,0.5 Z" stroke-linecap="square"></path>
        </g>
        <path d="M79.5,361.5 L159.5,361.5" id="Line" stroke="#979797" stroke-linecap="square" sketch:type="MSShapeGroup"></path>
        <path id="Line-decoration-1" d="M159.5,361.5 C155.72,360.45 152.48,359.55 148.7,358.5 C148.7,360.6 148.7,362.4 148.7,364.5 C152.48,363.45 155.72,362.55 159.5,361.5 C159.5,361.5 159.5,361.5 159.5,361.5 Z" stroke="#979797" stroke-linecap="square"></path>
        <text id="z1-and-z2-before-cal" sketch:type="MSTextLayer" font-family="Helvetica" font-size="12" font-weight="bold" fill="#000000">
            <tspan x="17" y="29">z1 and z2 before calling set-to-wow!</tspan>
        </text>
        <g id="a-cons" sketch:type="MSLayerGroup" transform="translate(64.000000, 556.000000)">
            <rect id="Rectangle-1" stroke="#979797" sketch:type="MSShapeGroup" x="0" y="0" width="30" height="30"></rect>
            <rect id="Rectangle-1" stroke="#979797" sketch:type="MSShapeGroup" x="29" y="0" width="30" height="30"></rect>
            <path d="M15,22 C18.8659934,22 22,18.8659934 22,15 C22,11.1340066 18.8659934,8 15,8 C11.1340066,8 8,11.1340066 8,15 C8,18.8659934 11.1340066,22 15,22 Z M44,22 C47.8659934,22 51,18.8659934 51,15 C51,11.1340066 47.8659934,8 44,8 C40.1340066,8 37,11.1340066 37,15 C37,18.8659934 40.1340066,22 44,22 Z" id="Oval-1" stroke="#979797" fill="#9B9B9B" sketch:type="MSShapeGroup"></path>
            <path d="M49.5,15.5 L96.5,15.5" id="Line" stroke="#979797" stroke-linecap="square" sketch:type="MSShapeGroup"></path>
            <path id="Line-decoration-1" d="M96.5,15.5 C92.72,14.45 89.48,13.55 85.7,12.5 C85.7,14.6 85.7,16.4 85.7,18.5 C89.48,17.45 92.72,16.55 96.5,15.5 C96.5,15.5 96.5,15.5 96.5,15.5 Z" stroke="#979797" stroke-linecap="square"></path>
            <rect id="Rectangle-1" stroke="#979797" sketch:type="MSShapeGroup" x="0" y="53" width="43" height="30"></rect>
            <path d="M14.5,14.5 L14.5,52.5" id="Line" stroke="#979797" stroke-linecap="square" sketch:type="MSShapeGroup"></path>
            <path id="Line-decoration-1" d="M14.5,52.5 C15.55,48.72 16.45,45.4800001 17.5,41.7000001 C15.4,41.7 13.6,41.7 11.5,41.6999999 C12.55,45.4799999 13.45,48.72 14.5,52.5 C14.5,52.5 14.5,52.5 14.5,52.5 Z" stroke="#979797" stroke-linecap="square"></path>
            <text id="wow" sketch:type="MSTextLayer" font-family="Helvetica" font-size="12" font-weight="normal" fill="#000000">
                <tspan x="10" y="72">wow</tspan>
            </text>
        </g>
        <g id="b-cons" sketch:type="MSLayerGroup" transform="translate(163.000000, 556.000000)">
            <path d="M58.5,0.5 L29.5,29.5" id="Line" stroke="#979797" stroke-linecap="square" sketch:type="MSShapeGroup"></path>
            <rect id="Rectangle-1" stroke="#979797" sketch:type="MSShapeGroup" x="0" y="0" width="30" height="30"></rect>
            <rect id="Rectangle-1" stroke="#979797" sketch:type="MSShapeGroup" x="29" y="0" width="30" height="30"></rect>
            <path d="M15,22 C18.8659934,22 22,18.8659934 22,15 C22,11.1340066 18.8659934,8 15,8 C11.1340066,8 8,11.1340066 8,15 C8,18.8659934 11.1340066,22 15,22 Z" id="Oval-1" stroke="#979797" fill="#9B9B9B" sketch:type="MSShapeGroup"></path>
            <rect id="Rectangle-1" stroke="#979797" sketch:type="MSShapeGroup" x="0" y="53" width="30" height="30"></rect>
            <path d="M14.5,14.5 L14.5,52.5" id="Line" stroke="#979797" stroke-linecap="square" sketch:type="MSShapeGroup"></path>
            <path id="Line-decoration-1" d="M14.5,52.5 C15.55,48.72 16.45,45.4800001 17.5,41.7000001 C15.4,41.7 13.6,41.7 11.5,41.6999999 C12.55,45.4799999 13.45,48.72 14.5,52.5 C14.5,52.5 14.5,52.5 14.5,52.5 Z" stroke="#979797" stroke-linecap="square"></path>
            <text id="b" sketch:type="MSTextLayer" font-family="Helvetica" font-size="12" font-weight="normal" fill="#000000">
                <tspan x="11" y="72">b</tspan>
            </text>
        </g>
        <g id="a-cons" sketch:type="MSLayerGroup" transform="translate(162.000000, 674.000000)">
            <rect id="Rectangle-1" stroke="#979797" sketch:type="MSShapeGroup" x="0" y="0" width="30" height="30"></rect>
            <rect id="Rectangle-1" stroke="#979797" sketch:type="MSShapeGroup" x="29" y="0" width="30" height="30"></rect>
            <path d="M15,22 C18.8659934,22 22,18.8659934 22,15 C22,11.1340066 18.8659934,8 15,8 C11.1340066,8 8,11.1340066 8,15 C8,18.8659934 11.1340066,22 15,22 Z M44,22 C47.8659934,22 51,18.8659934 51,15 C51,11.1340066 47.8659934,8 44,8 C40.1340066,8 37,11.1340066 37,15 C37,18.8659934 40.1340066,22 44,22 Z" id="Oval-1" stroke="#979797" fill="#9B9B9B" sketch:type="MSShapeGroup"></path>
            <path d="M49.5,15.5 L96.5,15.5" id="Line" stroke="#979797" stroke-linecap="square" sketch:type="MSShapeGroup"></path>
            <path id="Line-decoration-1" d="M96.5,15.5 C92.72,14.45 89.48,13.55 85.7,12.5 C85.7,14.6 85.7,16.4 85.7,18.5 C89.48,17.45 92.72,16.55 96.5,15.5 C96.5,15.5 96.5,15.5 96.5,15.5 Z" stroke="#979797" stroke-linecap="square"></path>
            <rect id="Rectangle-1" stroke="#979797" sketch:type="MSShapeGroup" x="0" y="53" width="30" height="30"></rect>
            <path d="M14.5,14.5 L14.5,52.5" id="Line" stroke="#979797" stroke-linecap="square" sketch:type="MSShapeGroup"></path>
            <path id="Line-decoration-1" d="M14.5,52.5 C15.55,48.72 16.45,45.4800001 17.5,41.7000001 C15.4,41.7 13.6,41.7 11.5,41.6999999 C12.55,45.4799999 13.45,48.72 14.5,52.5 C14.5,52.5 14.5,52.5 14.5,52.5 Z" stroke="#979797" stroke-linecap="square"></path>
            <text id="a" sketch:type="MSTextLayer" font-family="Helvetica" font-size="12" font-weight="normal" fill="#000000">
                <tspan x="11" y="72">a</tspan>
            </text>
        </g>
        <g id="b-cons" sketch:type="MSLayerGroup" transform="translate(261.000000, 674.000000)">
            <path d="M58.5,0.5 L29.5,29.5" id="Line" stroke="#979797" stroke-linecap="square" sketch:type="MSShapeGroup"></path>
            <rect id="Rectangle-1" stroke="#979797" sketch:type="MSShapeGroup" x="0" y="0" width="30" height="30"></rect>
            <rect id="Rectangle-1" stroke="#979797" sketch:type="MSShapeGroup" x="29" y="0" width="30" height="30"></rect>
            <path d="M15,22 C18.8659934,22 22,18.8659934 22,15 C22,11.1340066 18.8659934,8 15,8 C11.1340066,8 8,11.1340066 8,15 C8,18.8659934 11.1340066,22 15,22 Z" id="Oval-1" stroke="#979797" fill="#9B9B9B" sketch:type="MSShapeGroup"></path>
            <rect id="Rectangle-1" stroke="#979797" sketch:type="MSShapeGroup" x="0" y="53" width="30" height="30"></rect>
            <path d="M14.5,14.5 L14.5,52.5" id="Line" stroke="#979797" stroke-linecap="square" sketch:type="MSShapeGroup"></path>
            <path id="Line-decoration-1" d="M14.5,52.5 C15.55,48.72 16.45,45.4800001 17.5,41.7000001 C15.4,41.7 13.6,41.7 11.5,41.6999999 C12.55,45.4799999 13.45,48.72 14.5,52.5 C14.5,52.5 14.5,52.5 14.5,52.5 Z" stroke="#979797" stroke-linecap="square"></path>
            <text id="b" sketch:type="MSTextLayer" font-family="Helvetica" font-size="12" font-weight="normal" fill="#000000">
                <tspan x="11" y="72">b</tspan>
            </text>
        </g>
        <path d="M31.5,515.5 L62.5,515.5" id="Line" stroke="#979797" stroke-linecap="square" sketch:type="MSShapeGroup"></path>
        <path id="Line-decoration-1" d="M62.5,515.5 C58.72,514.45 55.48,513.55 51.7,512.5 C51.7,514.6 51.7,516.4 51.7,518.5 C55.48,517.45 58.72,516.55 62.5,515.5 C62.5,515.5 62.5,515.5 62.5,515.5 Z" stroke="#979797" stroke-linecap="square"></path>
        <text id="z1" sketch:type="MSTextLayer" font-family="Helvetica" font-size="12" font-weight="normal" fill="#000000">
            <tspan x="18" y="519">z1</tspan>
        </text>
        <g id="a-cons" sketch:type="MSLayerGroup" transform="translate(64.000000, 501.000000)" stroke="#979797">
            <rect id="Rectangle-1" sketch:type="MSShapeGroup" x="0" y="0" width="30" height="30"></rect>
            <rect id="Rectangle-1" sketch:type="MSShapeGroup" x="29" y="0" width="30" height="30"></rect>
            <path d="M15,22 C18.8659934,22 22,18.8659934 22,15 C22,11.1340066 18.8659934,8 15,8 C11.1340066,8 8,11.1340066 8,15 C8,18.8659934 11.1340066,22 15,22 Z M44,22 C47.8659934,22 51,18.8659934 51,15 C51,11.1340066 47.8659934,8 44,8 C40.1340066,8 37,11.1340066 37,15 C37,18.8659934 40.1340066,22 44,22 Z" id="Oval-1" fill="#9B9B9B" sketch:type="MSShapeGroup"></path>
            <path d="M14.5,14.5 L14.5,52.5" id="Line" stroke-linecap="square" sketch:type="MSShapeGroup"></path>
            <path id="Line-decoration-1" d="M14.5,52.5 C15.55,48.72 16.45,45.4800001 17.5,41.7000001 C15.4,41.7 13.6,41.7 11.5,41.6999999 C12.55,45.4799999 13.45,48.72 14.5,52.5 C14.5,52.5 14.5,52.5 14.5,52.5 Z" stroke-linecap="square"></path>
            <path d="M44.5,14.5 L44.5,52.5" id="Line" stroke-linecap="square" sketch:type="MSShapeGroup"></path>
            <path id="Line-decoration-1" d="M44.5,52.5 C45.55,48.72 46.45,45.4800001 47.5,41.7000001 C45.4,41.7 43.6,41.7 41.5,41.6999999 C42.55,45.4799999 43.45,48.72 44.5,52.5 C44.5,52.5 44.5,52.5 44.5,52.5 Z" stroke-linecap="square"></path>
        </g>
        <path d="M30.5,688.5 L61.5,688.5" id="Line" stroke="#979797" stroke-linecap="square" sketch:type="MSShapeGroup"></path>
        <path id="Line-decoration-1" d="M61.5,688.5 C57.72,687.45 54.48,686.55 50.7,685.5 C50.7,687.6 50.7,689.4 50.7,691.5 C54.48,690.45 57.72,689.55 61.5,688.5 C61.5,688.5 61.5,688.5 61.5,688.5 Z" stroke="#979797" stroke-linecap="square"></path>
        <text id="z2" sketch:type="MSTextLayer" font-family="Helvetica" font-size="12" font-weight="normal" fill="#000000">
            <tspan x="17" y="692">z2</tspan>
        </text>
        <g id="a-cons" sketch:type="MSLayerGroup" transform="translate(64.000000, 674.000000)" stroke="#979797">
            <rect id="Rectangle-1" sketch:type="MSShapeGroup" x="0" y="0" width="30" height="30"></rect>
            <rect id="Rectangle-1" sketch:type="MSShapeGroup" x="29" y="0" width="30" height="30"></rect>
            <path d="M15,22 C18.8659934,22 22,18.8659934 22,15 C22,11.1340066 18.8659934,8 15,8 C11.1340066,8 8,11.1340066 8,15 C8,18.8659934 11.1340066,22 15,22 Z M44,22 C47.8659934,22 51,18.8659934 51,15 C51,11.1340066 47.8659934,8 44,8 C40.1340066,8 37,11.1340066 37,15 C37,18.8659934 40.1340066,22 44,22 Z" id="Oval-1" fill="#9B9B9B" sketch:type="MSShapeGroup"></path>
            <path d="M44.5,14.5 L96.5,14.5" id="Line" stroke-linecap="square" sketch:type="MSShapeGroup"></path>
            <path id="Line-decoration-1" d="M96.5,14.5 C92.72,13.45 89.48,12.55 85.7,11.5 C85.7,13.6 85.7,15.4 85.7,17.5 C89.48,16.45 92.72,15.55 96.5,14.5 C96.5,14.5 96.5,14.5 96.5,14.5 Z" stroke-linecap="square"></path>
        </g>
        <path d="M79.5,688.5 L79.5,797.5" id="Line" stroke="#979797" stroke-linecap="square" sketch:type="MSShapeGroup"></path>
        <g id="a-cons" sketch:type="MSLayerGroup" transform="translate(162.000000, 783.000000)" stroke="#979797">
            <rect id="Rectangle-1" sketch:type="MSShapeGroup" x="0" y="0" width="30" height="30"></rect>
            <rect id="Rectangle-1" sketch:type="MSShapeGroup" x="29" y="0" width="30" height="30"></rect>
            <path d="M15,22 C18.8659934,22 22,18.8659934 22,15 C22,11.1340066 18.8659934,8 15,8 C11.1340066,8 8,11.1340066 8,15 C8,18.8659934 11.1340066,22 15,22 Z M44,22 C47.8659934,22 51,18.8659934 51,15 C51,11.1340066 47.8659934,8 44,8 C40.1340066,8 37,11.1340066 37,15 C37,18.8659934 40.1340066,22 44,22 Z" id="Oval-1" fill="#9B9B9B" sketch:type="MSShapeGroup"></path>
            <path d="M49.5,15.5 L96.5,15.5" id="Line" stroke-linecap="square" sketch:type="MSShapeGroup"></path>
            <path id="Line-decoration-1" d="M96.5,15.5 C92.72,14.45 89.48,13.55 85.7,12.5 C85.7,14.6 85.7,16.4 85.7,18.5 C89.48,17.45 92.72,16.55 96.5,15.5 C96.5,15.5 96.5,15.5 96.5,15.5 Z" stroke-linecap="square"></path>
            <path d="M14.5,14.5 L14.5,57.5" id="Line" stroke-linecap="square" sketch:type="MSShapeGroup"></path>
            <path id="Line-decoration-1" d="M14.5,57.5 C15.55,53.72 16.45,50.4800001 17.5,46.7000001 C15.4,46.7 13.6,46.7 11.5,46.6999999 C12.55,50.4799999 13.45,53.72 14.5,57.5 C14.5,57.5 14.5,57.5 14.5,57.5 Z" stroke-linecap="square"></path>
        </g>
        <g id="b-cons" sketch:type="MSLayerGroup" transform="translate(261.000000, 757.000000)" stroke="#979797">
            <path d="M58.5,27.5 L29.5,56.5" id="Line" stroke-linecap="square" sketch:type="MSShapeGroup"></path>
            <rect id="Rectangle-1" sketch:type="MSShapeGroup" x="0" y="27" width="30" height="30"></rect>
            <rect id="Rectangle-1" sketch:type="MSShapeGroup" x="29" y="27" width="30" height="30"></rect>
            <path d="M15,49 C18.8659934,49 22,45.8659934 22,42 C22,38.1340066 18.8659934,35 15,35 C11.1340066,35 8,38.1340066 8,42 C8,45.8659934 11.1340066,49 15,49 Z" id="Oval-1" fill="#9B9B9B" sketch:type="MSShapeGroup"></path>
            <path d="M14.5,41.5 L14.5,0.5" id="Line" stroke-linecap="square" sketch:type="MSShapeGroup"></path>
            <path id="Line-decoration-1" d="M14.5,0.5 C13.45,4.28000005 12.55,7.52000009 11.5,11.3000001 C13.6,11.3 15.4,11.3 17.5,11.2999999 C16.45,7.51999991 15.55,4.27999995 14.5,0.5 C14.5,0.5 14.5,0.5 14.5,0.5 Z" stroke-linecap="square"></path>
        </g>
        <path d="M79.5,797.5 L159.5,797.5" id="Line" stroke="#979797" stroke-linecap="square" sketch:type="MSShapeGroup"></path>
        <path id="Line-decoration-1" d="M159.5,797.5 C155.72,796.45 152.48,795.55 148.7,794.5 C148.7,796.6 148.7,798.4 148.7,800.5 C152.48,799.45 155.72,798.55 159.5,797.5 C159.5,797.5 159.5,797.5 159.5,797.5 Z" stroke="#979797" stroke-linecap="square"></path>
        <text id="z1-and-z2-after-call" sketch:type="MSTextLayer" font-family="Helvetica" font-size="12" font-weight="bold" fill="#000000">
            <tspan x="17" y="465">z1 and z2 after calling set-to-wow!</tspan>
        </text>
        <g id="Rectangle-1-+-wow" sketch:type="MSLayerGroup" transform="translate(162.000000, 842.000000)">
            <rect id="Rectangle-1" stroke="#979797" sketch:type="MSShapeGroup" x="0" y="0" width="43" height="30"></rect>
            <text id="wow" sketch:type="MSTextLayer" font-family="Helvetica" font-size="12" font-weight="normal" fill="#000000">
                <tspan x="10" y="19">wow</tspan>
            </text>
        </g>
    </g>
</svg>