<?xml version="1.0" encoding="UTF-8" standalone="no"?>
<svg width="391px" height="915px" viewBox="0 0 391 915" version="1.1" xmlns="http://www.w3.org/2000/svg" xmlns:xlink="http://www.w3.org/1999/xlink" xmlns:sketch="http://www.bohemiancoding.com/sketch/ns">
    <title>16</title>
    <description>Created with Sketch (http://www.bohemiancoding.com/sketch)</description>
    <defs></defs>
    <g id="Page-1" stroke="none" stroke-width="1" fill="none" fill-rule="evenodd" sketch:type="MSPage">
        <g id="a-cons-+-b-cons-+-c-cons" sketch:type="MSLayerGroup" transform="translate(18.000000, 53.000000)">
            <g id="a-cons">
                <rect id="Rectangle-1" stroke="#979797" sketch:type="MSShapeGroup" x="0" y="0" width="30" height="30"></rect>
                <rect id="Rectangle-1" stroke="#979797" sketch:type="MSShapeGroup" x="29" y="0" width="30" height="30"></rect>
                <path d="M15,22 C18.8659934,22 22,18.8659934 22,15 C22,11.1340066 18.8659934,8 15,8 C11.1340066,8 8,11.1340066 8,15 C8,18.8659934 11.1340066,22 15,22 Z" id="Oval-1" stroke="#979797" fill="#9B9B9B" sketch:type="MSShapeGroup"></path>
                <path d="M43,22 C46.8659934,22 50,18.8659934 50,15 C50,11.1340066 46.8659934,8 43,8 C39.1340066,8 36,11.1340066 36,15 C36,18.8659934 39.1340066,22 43,22 Z" id="Oval-1" stroke="#979797" fill="#9B9B9B" sketch:type="MSShapeGroup"></path>
                <rect id="Rectangle-1" stroke="#979797" sketch:type="MSShapeGroup" x="0" y="53" width="30" height="30"></rect>
                <path d="M14.5,14.5 L14.5,52.5" id="Line" stroke="#979797" stroke-linecap="square" sketch:type="MSShapeGroup"></path>
                <path id="Line-decoration-1" d="M14.5,52.5 C15.55,48.72 16.45,45.4800001 17.5,41.7000001 C15.4,41.7 13.6,41.7 11.5,41.6999999 C12.55,45.4799999 13.45,48.72 14.5,52.5 C14.5,52.5 14.5,52.5 14.5,52.5 Z" stroke="#979797" stroke-linecap="square"></path>
                <text id="a" sketch:type="MSTextLayer" font-family="Helvetica" font-size="12" font-weight="normal" fill="#000000">
                    <tspan x="11" y="72">a</tspan>
                </text>
                <path d="M45.5,15.5 L92.5,15.5" id="Line" stroke="#979797" stroke-linecap="square" sketch:type="MSShapeGroup"></path>
                <path id="Line-decoration-1" d="M92.5,15.5 C88.72,14.45 85.48,13.55 81.7,12.5 C81.7,14.6 81.7,16.4 81.7,18.5 C85.48,17.45 88.72,16.55 92.5,15.5 C92.5,15.5 92.5,15.5 92.5,15.5 Z" stroke="#979797" stroke-linecap="square"></path>
            </g>
            <g id="b-cons" transform="translate(94.000000, 0.000000)">
                <rect id="Rectangle-1" stroke="#979797" sketch:type="MSShapeGroup" x="0" y="0" width="30" height="30"></rect>
                <rect id="Rectangle-1" stroke="#979797" sketch:type="MSShapeGroup" x="29" y="0" width="30" height="30"></rect>
                <path d="M15,22 C18.8659934,22 22,18.8659934 22,15 C22,11.1340066 18.8659934,8 15,8 C11.1340066,8 8,11.1340066 8,15 C8,18.8659934 11.1340066,22 15,22 Z M44,22 C47.8659934,22 51,18.8659934 51,15 C51,11.1340066 47.8659934,8 44,8 C40.1340066,8 37,11.1340066 37,15 C37,18.8659934 40.1340066,22 44,22 Z" id="Oval-1" stroke="#979797" fill="#9B9B9B" sketch:type="MSShapeGroup"></path>
                <path d="M49.5,15.5 L96.5,15.5" id="Line" stroke="#979797" stroke-linecap="square" sketch:type="MSShapeGroup"></path>
                <path id="Line-decoration-1" d="M96.5,15.5 C92.72,14.45 89.48,13.55 85.7,12.5 C85.7,14.6 85.7,16.4 85.7,18.5 C89.48,17.45 92.72,16.55 96.5,15.5 C96.5,15.5 96.5,15.5 96.5,15.5 Z" stroke="#979797" stroke-linecap="square"></path>
                <rect id="Rectangle-1" stroke="#979797" sketch:type="MSShapeGroup" x="0" y="53" width="30" height="30"></rect>
                <path d="M14.5,14.5 L14.5,52.5" id="Line" stroke="#979797" stroke-linecap="square" sketch:type="MSShapeGroup"></path>
                <path id="Line-decoration-1" d="M14.5,52.5 C15.55,48.72 16.45,45.4800001 17.5,41.7000001 C15.4,41.7 13.6,41.7 11.5,41.6999999 C12.55,45.4799999 13.45,48.72 14.5,52.5 C14.5,52.5 14.5,52.5 14.5,52.5 Z" stroke="#979797" stroke-linecap="square"></path>
                <text id="b" sketch:type="MSTextLayer" font-family="Helvetica" font-size="12" font-weight="normal" fill="#000000">
                    <tspan x="11" y="72">b</tspan>
                </text>
            </g>
            <g id="c-cons" transform="translate(192.000000, 0.000000)">
                <path d="M58.5,0.5 L29.5,29.5" id="Line" stroke="#979797" stroke-linecap="square" sketch:type="MSShapeGroup"></path>
                <rect id="Rectangle-1" stroke="#979797" sketch:type="MSShapeGroup" x="0" y="0" width="30" height="30"></rect>
                <rect id="Rectangle-1" stroke="#979797" sketch:type="MSShapeGroup" x="29" y="0" width="30" height="30"></rect>
                <path d="M15,22 C18.8659934,22 22,18.8659934 22,15 C22,11.1340066 18.8659934,8 15,8 C11.1340066,8 8,11.1340066 8,15 C8,18.8659934 11.1340066,22 15,22 Z" id="Oval-1" stroke="#979797" fill="#9B9B9B" sketch:type="MSShapeGroup"></path>
                <rect id="Rectangle-1" stroke="#979797" sketch:type="MSShapeGroup" x="0" y="53" width="30" height="30"></rect>
                <path d="M14.5,14.5 L14.5,52.5" id="Line" stroke="#979797" stroke-linecap="square" sketch:type="MSShapeGroup"></path>
                <path id="Line-decoration-1" d="M14.5,52.5 C15.55,48.72 16.45,45.4800001 17.5,41.7000001 C15.4,41.7 13.6,41.7 11.5,41.6999999 C12.55,45.4799999 13.45,48.72 14.5,52.5 C14.5,52.5 14.5,52.5 14.5,52.5 Z" stroke="#979797" stroke-linecap="square"></path>
                <text id="c" sketch:type="MSTextLayer" font-family="Helvetica" font-size="12" font-weight="normal" fill="#000000">
                    <tspan x="11" y="72">c</tspan>
                </text>
            </g>
        </g>
        <text id="Ben’s-procedure-coun" sketch:type="MSTextLayer" font-family="Helvetica" font-size="12" font-weight="bold" fill="#000000">
            <tspan x="10" y="25">Ben’s procedure counts 3 pairs in this structure:</tspan>
        </text>
        <g id="a-cons" sketch:type="MSLayerGroup" transform="translate(18.000000, 245.000000)">
            <rect id="Rectangle-1" stroke="#979797" sketch:type="MSShapeGroup" x="0" y="0" width="30" height="30"></rect>
            <rect id="Rectangle-1" stroke="#979797" sketch:type="MSShapeGroup" x="29" y="0" width="30" height="30"></rect>
            <path d="M15,22 C18.8659934,22 22,18.8659934 22,15 C22,11.1340066 18.8659934,8 15,8 C11.1340066,8 8,11.1340066 8,15 C8,18.8659934 11.1340066,22 15,22 Z" id="Oval-1" stroke="#979797" fill="#9B9B9B" sketch:type="MSShapeGroup"></path>
            <path d="M43,22 C46.8659934,22 50,18.8659934 50,15 C50,11.1340066 46.8659934,8 43,8 C39.1340066,8 36,11.1340066 36,15 C36,18.8659934 39.1340066,22 43,22 Z" id="Oval-1" stroke="#979797" fill="#9B9B9B" sketch:type="MSShapeGroup"></path>
            <rect id="Rectangle-1" stroke="#979797" sketch:type="MSShapeGroup" x="0" y="53" width="30" height="30"></rect>
            <path d="M14.5,14.5 L14.5,52.5" id="Line" stroke="#979797" stroke-linecap="square" sketch:type="MSShapeGroup"></path>
            <path id="Line-decoration-1" d="M14.5,52.5 C15.55,48.72 16.45,45.4800001 17.5,41.7000001 C15.4,41.7 13.6,41.7 11.5,41.6999999 C12.55,45.4799999 13.45,48.72 14.5,52.5 C14.5,52.5 14.5,52.5 14.5,52.5 Z" stroke="#979797" stroke-linecap="square"></path>
            <text id="a" sketch:type="MSTextLayer" font-family="Helvetica" font-size="12" font-weight="normal" fill="#000000">
                <tspan x="11" y="72">a</tspan>
            </text>
            <path d="M45.5,15.5 L92.5,15.5" id="Line" stroke="#979797" stroke-linecap="square" sketch:type="MSShapeGroup"></path>
            <path id="Line-decoration-1" d="M92.5,15.5 C88.72,14.45 85.48,13.55 81.7,12.5 C81.7,14.6 81.7,16.4 81.7,18.5 C85.48,17.45 88.72,16.55 92.5,15.5 C92.5,15.5 92.5,15.5 92.5,15.5 Z" stroke="#979797" stroke-linecap="square"></path>
        </g>
        <g id="b-cons" sketch:type="MSLayerGroup" transform="translate(112.000000, 245.000000)" stroke="#979797">
            <rect id="Rectangle-1" sketch:type="MSShapeGroup" x="0" y="0" width="30" height="30"></rect>
            <rect id="Rectangle-1" sketch:type="MSShapeGroup" x="29" y="0" width="30" height="30"></rect>
            <path d="M15,22 C18.8659934,22 22,18.8659934 22,15 C22,11.1340066 18.8659934,8 15,8 C11.1340066,8 8,11.1340066 8,15 C8,18.8659934 11.1340066,22 15,22 Z M44,22 C47.8659934,22 51,18.8659934 51,15 C51,11.1340066 47.8659934,8 44,8 C40.1340066,8 37,11.1340066 37,15 C37,18.8659934 40.1340066,22 44,22 Z" id="Oval-1" fill="#9B9B9B" sketch:type="MSShapeGroup"></path>
            <path d="M44.5,15.5 L44.5,52.5" id="Line" stroke-linecap="square" sketch:type="MSShapeGroup"></path>
            <path id="Line-decoration-1" d="M44.5,52.5 C45.55,48.72 46.45,45.4800001 47.5,41.7000001 C45.4,41.7 43.6,41.7 41.5,41.6999999 C42.55,45.4799999 43.45,48.72 44.5,52.5 C44.5,52.5 44.5,52.5 44.5,52.5 Z" stroke-linecap="square"></path>
            <path d="M14.5,14.5 L14.5,52.5" id="Line" stroke-linecap="square" sketch:type="MSShapeGroup"></path>
            <path id="Line-decoration-1" d="M14.5,52.5 C15.55,48.72 16.45,45.4800001 17.5,41.7000001 C15.4,41.7 13.6,41.7 11.5,41.6999999 C12.55,45.4799999 13.45,48.72 14.5,52.5 C14.5,52.5 14.5,52.5 14.5,52.5 Z" stroke-linecap="square"></path>
        </g>
        <g id="c-cons" sketch:type="MSLayerGroup" transform="translate(112.000000, 300.000000)" stroke="#979797">
            <path d="M58.5,0.5 L29.5,29.5" id="Line" stroke-linecap="square" sketch:type="MSShapeGroup"></path>
            <rect id="Rectangle-1" sketch:type="MSShapeGroup" x="0" y="0" width="30" height="30"></rect>
            <rect id="Rectangle-1" sketch:type="MSShapeGroup" x="29" y="0" width="30" height="30"></rect>
            <path d="M15,22 C18.8659934,22 22,18.8659934 22,15 C22,11.1340066 18.8659934,8 15,8 C11.1340066,8 8,11.1340066 8,15 C8,18.8659934 11.1340066,22 15,22 Z" id="Oval-1" fill="#9B9B9B" sketch:type="MSShapeGroup"></path>
            <rect id="Rectangle-1" sketch:type="MSShapeGroup" x="0" y="53" width="30" height="30"></rect>
            <path d="M14.5,14.5 L14.5,52.5" id="Line" stroke-linecap="square" sketch:type="MSShapeGroup"></path>
            <path id="Line-decoration-1" d="M14.5,52.5 C15.55,48.72 16.45,45.4800001 17.5,41.7000001 C15.4,41.7 13.6,41.7 11.5,41.6999999 C12.55,45.4799999 13.45,48.72 14.5,52.5 C14.5,52.5 14.5,52.5 14.5,52.5 Z" stroke-linecap="square"></path>
            <text id="b" sketch:type="MSTextLayer" font-family="Helvetica" font-size="12" font-weight="normal" fill="#000000">
                <tspan x="11" y="72">b</tspan>
            </text>
        </g>
        <text id="Ben’s-procedure-coun" sketch:type="MSTextLayer" font-family="Helvetica" font-size="12" font-weight="bold" fill="#000000">
            <tspan x="10" y="222">Ben’s procedure counts 4 pairs in this structure:</tspan>
        </text>
        <text id="Ben’s-procedure-coun" sketch:type="MSTextLayer" font-family="Helvetica" font-size="12" font-weight="bold" fill="#000000">
            <tspan x="10" y="448">Ben’s procedure counts 7 pairs in this structure:</tspan>
        </text>
        <g id="a-cons" sketch:type="MSLayerGroup" transform="translate(18.000000, 480.000000)" stroke="#979797">
            <rect id="Rectangle-1" sketch:type="MSShapeGroup" x="0" y="0" width="30" height="30"></rect>
            <rect id="Rectangle-1" sketch:type="MSShapeGroup" x="29" y="0" width="30" height="30"></rect>
            <path d="M15,22 C18.8659934,22 22,18.8659934 22,15 C22,11.1340066 18.8659934,8 15,8 C11.1340066,8 8,11.1340066 8,15 C8,18.8659934 11.1340066,22 15,22 Z" id="Oval-1" fill="#9B9B9B" sketch:type="MSShapeGroup"></path>
            <path d="M43,22 C46.8659934,22 50,18.8659934 50,15 C50,11.1340066 46.8659934,8 43,8 C39.1340066,8 36,11.1340066 36,15 C36,18.8659934 39.1340066,22 43,22 Z" id="Oval-1" fill="#9B9B9B" sketch:type="MSShapeGroup"></path>
            <path d="M14.5,14.5 L14.5,52.5" id="Line" stroke-linecap="square" sketch:type="MSShapeGroup"></path>
            <path id="Line-decoration-1" d="M14.5,52.5 C15.55,48.72 16.45,45.4800001 17.5,41.7000001 C15.4,41.7 13.6,41.7 11.5,41.6999999 C12.55,45.4799999 13.45,48.72 14.5,52.5 C14.5,52.5 14.5,52.5 14.5,52.5 Z" stroke-linecap="square"></path>
            <path d="M43.5,15.5 L43.5,53.5" id="Line" stroke-linecap="square" sketch:type="MSShapeGroup"></path>
            <path id="Line-decoration-1" d="M43.5,53.5 C44.55,49.72 45.45,46.4800001 46.5,42.7000001 C44.4,42.7 42.6,42.7 40.5,42.6999999 C41.55,46.4799999 42.45,49.72 43.5,53.5 C43.5,53.5 43.5,53.5 43.5,53.5 Z" stroke-linecap="square"></path>
        </g>
        <g id="b-cons" sketch:type="MSLayerGroup" transform="translate(18.000000, 534.000000)" stroke="#979797">
            <rect id="Rectangle-1" sketch:type="MSShapeGroup" x="0" y="0" width="30" height="30"></rect>
            <rect id="Rectangle-1" sketch:type="MSShapeGroup" x="29" y="0" width="30" height="30"></rect>
            <path d="M15,22 C18.8659934,22 22,18.8659934 22,15 C22,11.1340066 18.8659934,8 15,8 C11.1340066,8 8,11.1340066 8,15 C8,18.8659934 11.1340066,22 15,22 Z M44,22 C47.8659934,22 51,18.8659934 51,15 C51,11.1340066 47.8659934,8 44,8 C40.1340066,8 37,11.1340066 37,15 C37,18.8659934 40.1340066,22 44,22 Z" id="Oval-1" fill="#9B9B9B" sketch:type="MSShapeGroup"></path>
            <path d="M44.5,15.5 L44.5,52.5" id="Line" stroke-linecap="square" sketch:type="MSShapeGroup"></path>
            <path id="Line-decoration-1" d="M44.5,52.5 C45.55,48.72 46.45,45.4800001 47.5,41.7000001 C45.4,41.7 43.6,41.7 41.5,41.6999999 C42.55,45.4799999 43.45,48.72 44.5,52.5 C44.5,52.5 44.5,52.5 44.5,52.5 Z" stroke-linecap="square"></path>
            <path d="M14.5,14.5 L14.5,52.5" id="Line" stroke-linecap="square" sketch:type="MSShapeGroup"></path>
            <path id="Line-decoration-1" d="M14.5,52.5 C15.55,48.72 16.45,45.4800001 17.5,41.7000001 C15.4,41.7 13.6,41.7 11.5,41.6999999 C12.55,45.4799999 13.45,48.72 14.5,52.5 C14.5,52.5 14.5,52.5 14.5,52.5 Z" stroke-linecap="square"></path>
        </g>
        <g id="c-cons" sketch:type="MSLayerGroup" transform="translate(18.000000, 588.000000)" stroke="#979797">
            <path d="M58.5,0.5 L29.5,29.5" id="Line" stroke-linecap="square" sketch:type="MSShapeGroup"></path>
            <rect id="Rectangle-1" sketch:type="MSShapeGroup" x="0" y="0" width="30" height="30"></rect>
            <rect id="Rectangle-1" sketch:type="MSShapeGroup" x="29" y="0" width="30" height="30"></rect>
            <path d="M15,22 C18.8659934,22 22,18.8659934 22,15 C22,11.1340066 18.8659934,8 15,8 C11.1340066,8 8,11.1340066 8,15 C8,18.8659934 11.1340066,22 15,22 Z" id="Oval-1" fill="#9B9B9B" sketch:type="MSShapeGroup"></path>
            <rect id="Rectangle-1" sketch:type="MSShapeGroup" x="0" y="53" width="30" height="30"></rect>
            <path d="M14.5,14.5 L14.5,52.5" id="Line" stroke-linecap="square" sketch:type="MSShapeGroup"></path>
            <path id="Line-decoration-1" d="M14.5,52.5 C15.55,48.72 16.45,45.4800001 17.5,41.7000001 C15.4,41.7 13.6,41.7 11.5,41.6999999 C12.55,45.4799999 13.45,48.72 14.5,52.5 C14.5,52.5 14.5,52.5 14.5,52.5 Z" stroke-linecap="square"></path>
            <text id="a" sketch:type="MSTextLayer" font-family="Helvetica" font-size="12" font-weight="normal" fill="#000000">
                <tspan x="11" y="72">a</tspan>
            </text>
        </g>
        <text id="Ben’s-procedure-neve" sketch:type="MSTextLayer" font-family="Helvetica" font-size="12" font-weight="bold" fill="#000000">
            <tspan x="10" y="748">Ben’s procedure never returns when inspecting this structure:</tspan>
        </text>
        <g id="a-cons" sketch:type="MSLayerGroup" transform="translate(18.000000, 802.000000)">
            <rect id="Rectangle-1" stroke="#979797" sketch:type="MSShapeGroup" x="0" y="0" width="30" height="30"></rect>
            <rect id="Rectangle-1" stroke="#979797" sketch:type="MSShapeGroup" x="29" y="0" width="30" height="30"></rect>
            <path d="M15,22 C18.8659934,22 22,18.8659934 22,15 C22,11.1340066 18.8659934,8 15,8 C11.1340066,8 8,11.1340066 8,15 C8,18.8659934 11.1340066,22 15,22 Z" id="Oval-1" stroke="#979797" fill="#9B9B9B" sketch:type="MSShapeGroup"></path>
            <path d="M43,22 C46.8659934,22 50,18.8659934 50,15 C50,11.1340066 46.8659934,8 43,8 C39.1340066,8 36,11.1340066 36,15 C36,18.8659934 39.1340066,22 43,22 Z" id="Oval-1" stroke="#979797" fill="#9B9B9B" sketch:type="MSShapeGroup"></path>
            <rect id="Rectangle-1" stroke="#979797" sketch:type="MSShapeGroup" x="0" y="53" width="30" height="30"></rect>
            <path d="M14.5,14.5 L14.5,52.5" id="Line" stroke="#979797" stroke-linecap="square" sketch:type="MSShapeGroup"></path>
            <path id="Line-decoration-1" d="M14.5,52.5 C15.55,48.72 16.45,45.4800001 17.5,41.7000001 C15.4,41.7 13.6,41.7 11.5,41.6999999 C12.55,45.4799999 13.45,48.72 14.5,52.5 C14.5,52.5 14.5,52.5 14.5,52.5 Z" stroke="#979797" stroke-linecap="square"></path>
            <text id="a" sketch:type="MSTextLayer" font-family="Helvetica" font-size="12" font-weight="normal" fill="#000000">
                <tspan x="11" y="72">a</tspan>
            </text>
            <path d="M45.5,15.5 L92.5,15.5" id="Line" stroke="#979797" stroke-linecap="square" sketch:type="MSShapeGroup"></path>
            <path id="Line-decoration-1" d="M92.5,15.5 C88.72,14.45 85.48,13.55 81.7,12.5 C81.7,14.6 81.7,16.4 81.7,18.5 C85.48,17.45 88.72,16.55 92.5,15.5 C92.5,15.5 92.5,15.5 92.5,15.5 Z" stroke="#979797" stroke-linecap="square"></path>
        </g>
        <g id="b-cons" sketch:type="MSLayerGroup" transform="translate(112.000000, 802.000000)">
            <rect id="Rectangle-1" stroke="#979797" sketch:type="MSShapeGroup" x="0" y="0" width="30" height="30"></rect>
            <rect id="Rectangle-1" stroke="#979797" sketch:type="MSShapeGroup" x="29" y="0" width="30" height="30"></rect>
            <path d="M15,22 C18.8659934,22 22,18.8659934 22,15 C22,11.1340066 18.8659934,8 15,8 C11.1340066,8 8,11.1340066 8,15 C8,18.8659934 11.1340066,22 15,22 Z M44,22 C47.8659934,22 51,18.8659934 51,15 C51,11.1340066 47.8659934,8 44,8 C40.1340066,8 37,11.1340066 37,15 C37,18.8659934 40.1340066,22 44,22 Z" id="Oval-1" stroke="#979797" fill="#9B9B9B" sketch:type="MSShapeGroup"></path>
            <path d="M49.5,15.5 L96.5,15.5" id="Line" stroke="#979797" stroke-linecap="square" sketch:type="MSShapeGroup"></path>
            <path id="Line-decoration-1" d="M96.5,15.5 C92.72,14.45 89.48,13.55 85.7,12.5 C85.7,14.6 85.7,16.4 85.7,18.5 C89.48,17.45 92.72,16.55 96.5,15.5 C96.5,15.5 96.5,15.5 96.5,15.5 Z" stroke="#979797" stroke-linecap="square"></path>
            <rect id="Rectangle-1" stroke="#979797" sketch:type="MSShapeGroup" x="0" y="53" width="30" height="30"></rect>
            <path d="M14.5,14.5 L14.5,52.5" id="Line" stroke="#979797" stroke-linecap="square" sketch:type="MSShapeGroup"></path>
            <path id="Line-decoration-1" d="M14.5,52.5 C15.55,48.72 16.45,45.4800001 17.5,41.7000001 C15.4,41.7 13.6,41.7 11.5,41.6999999 C12.55,45.4799999 13.45,48.72 14.5,52.5 C14.5,52.5 14.5,52.5 14.5,52.5 Z" stroke="#979797" stroke-linecap="square"></path>
            <text id="b" sketch:type="MSTextLayer" font-family="Helvetica" font-size="12" font-weight="normal" fill="#000000">
                <tspan x="11" y="72">b</tspan>
            </text>
        </g>
        <g id="c-cons" sketch:type="MSLayerGroup" transform="translate(210.000000, 802.000000)">
            <rect id="Rectangle-1" stroke="#979797" sketch:type="MSShapeGroup" x="0" y="0" width="30" height="30"></rect>
            <rect id="Rectangle-1" stroke="#979797" sketch:type="MSShapeGroup" x="29" y="0" width="30" height="30"></rect>
            <path d="M15,22 C18.8659934,22 22,18.8659934 22,15 C22,11.1340066 18.8659934,8 15,8 C11.1340066,8 8,11.1340066 8,15 C8,18.8659934 11.1340066,22 15,22 Z" id="Oval-1" stroke="#979797" fill="#9B9B9B" sketch:type="MSShapeGroup"></path>
            <path d="M44,22 C47.8659934,22 51,18.8659934 51,15 C51,11.1340066 47.8659934,8 44,8 C40.1340066,8 37,11.1340066 37,15 C37,18.8659934 40.1340066,22 44,22 Z" id="Oval-1" stroke="#979797" fill="#9B9B9B" sketch:type="MSShapeGroup"></path>
            <rect id="Rectangle-1" stroke="#979797" sketch:type="MSShapeGroup" x="0" y="53" width="30" height="30"></rect>
            <path d="M14.5,14.5 L14.5,52.5" id="Line" stroke="#979797" stroke-linecap="square" sketch:type="MSShapeGroup"></path>
            <path id="Line-decoration-1" d="M14.5,52.5 C15.55,48.72 16.45,45.4800001 17.5,41.7000001 C15.4,41.7 13.6,41.7 11.5,41.6999999 C12.55,45.4799999 13.45,48.72 14.5,52.5 C14.5,52.5 14.5,52.5 14.5,52.5 Z" stroke="#979797" stroke-linecap="square"></path>
            <text id="c" sketch:type="MSTextLayer" font-family="Helvetica" font-size="12" font-weight="normal" fill="#000000">
                <tspan x="11" y="72">c</tspan>
            </text>
        </g>
        <path d="M253.5,817.5 L253.5,778.5" id="Line" stroke="#979797" stroke-linecap="square" sketch:type="MSShapeGroup"></path>
        <path d="M253.5,777.5 L33.5,777.5" id="Line" stroke="#979797" stroke-linecap="square" sketch:type="MSShapeGroup"></path>
        <path d="M32.5,799.5 L32.5,777.5" id="Line" stroke="#979797" stroke-linecap="square" sketch:type="MSShapeGroup"></path>
        <path id="Line-decoration-1" d="M32.5,798.7 C31.45,794.92 30.55,791.68 29.5,787.9 C31.6,787.9 33.4,787.9 35.5,787.9 C34.45,791.68 33.55,794.92 32.5,798.7 C32.5,798.7 32.5,798.7 32.5,798.7 Z" stroke="#979797" stroke-linecap="square"></path>
    </g>
</svg>